<svg width="17" height="17" viewBox="0 0 17 17" fill="none" xmlns="http://www.w3.org/2000/svg">
<path d="M10.3529 12.2007C9.36566 12.2007 8.55566 13.036 8.55566 14.0485C8.55566 15.061 9.36566 15.8963 10.3529 15.8963C11.34 15.8963 12.15 15.061 12.15 14.0485C12.1754 13.036 11.3654 12.2007 10.3529 12.2007ZM10.3529 15.0104C9.8466 15.0104 9.4416 14.5801 9.4416 14.0485C9.4416 13.5169 9.8466 13.0866 10.3529 13.0866C10.8591 13.0866 11.2641 13.5169 11.2641 14.0485C11.2894 14.5801 10.8591 15.0104 10.3529 15.0104Z" fill="black"/>
<path d="M4.60676 12.2007C3.61957 12.2007 2.80957 13.036 2.80957 14.0485C2.80957 15.061 3.61957 15.8963 4.60676 15.8963C5.59394 15.8963 6.40394 15.061 6.40394 14.0485C6.42925 13.036 5.61926 12.2007 4.60676 12.2007ZM4.60676 15.0104C4.10051 15.0104 3.69551 14.5801 3.69551 14.0485C3.69551 13.5169 4.10051 13.0866 4.60676 13.0866C5.11301 13.0866 5.51801 13.5169 5.51801 14.0485C5.54332 14.5801 5.11301 15.0104 4.60676 15.0104Z" fill="black"/>
<path d="M14.6307 0.329102H13.0107C12.631 0.329102 12.3019 0.607539 12.2513 0.987226L11.7957 4.32848H1.84786C1.62004 4.32848 1.41754 4.42973 1.29098 4.60691C1.16442 4.7841 1.11379 5.01191 1.16442 5.21441V5.23973L2.70848 10.0238C2.78442 10.3275 3.06286 10.5553 3.41723 10.5553H10.8844C11.4413 10.5553 11.8969 10.1503 11.9729 9.59347L13.1372 1.18973H14.656C14.9091 1.18973 15.1116 0.987226 15.1116 0.734101C15.1116 0.480977 14.8838 0.329102 14.6307 0.329102ZM11.0616 9.46691C11.0363 9.56816 10.9604 9.66941 10.8338 9.66941H3.49317L2.05036 5.21441H11.6438L11.0616 9.46691Z" fill="black"/>
</svg>
