<svg width="18" height="18" viewBox="0 0 18 18" fill="none" xmlns="http://www.w3.org/2000/svg">
<path d="M9 7.03125C7.90312 7.03125 7.03125 7.93125 7.03125 9C7.03125 10.0687 7.93125 10.9688 9 10.9688C10.0687 10.9688 10.9687 10.0687 10.9687 9C10.9687 7.93125 10.0969 7.03125 9 7.03125ZM9 9.98438C8.46562 9.98438 8.01562 9.53437 8.01562 9C8.01562 8.46563 8.46562 8.01562 9 8.01562C9.53437 8.01562 9.98437 8.46563 9.98437 9C9.98437 9.53437 9.53437 9.98438 9 9.98438Z" fill="black"/>
<path d="M17.5501 8.6624C15.6938 5.7374 12.4876 3.99365 9.0001 3.99365C5.5126 3.99365 2.30635 5.7374 0.450098 8.6624C0.337598 8.85928 0.337598 9.1124 0.450098 9.30928C2.30635 12.2343 5.5126 13.978 9.0001 13.978C12.4876 13.978 15.6938 12.2343 17.5501 9.30928C17.6907 9.1124 17.6907 8.85928 17.5501 8.6624ZM9.0001 12.9937C5.93447 12.9937 3.09385 11.503 1.40635 8.97178C3.09385 6.46865 5.93447 4.97803 9.0001 4.97803C12.0657 4.97803 14.9063 6.46865 16.5938 8.97178C14.9063 11.503 12.0657 12.9937 9.0001 12.9937Z" fill="black"/>
</svg>
