<svg width="18" height="18" viewBox="0 0 18 18" fill="none" xmlns="http://www.w3.org/2000/svg">
<path d="M9.00039 16.7062C8.66289 16.7062 8.29727 16.5937 8.04414 16.3405C7.39727 15.778 6.75039 15.2437 6.18789 14.7655C4.52852 13.3593 3.09414 12.1499 2.08164 10.9405C0.900391 9.53428 0.337891 8.18428 0.337891 6.69365C0.337891 5.23115 0.844141 3.88115 1.77227 2.89678C2.70039 1.88428 3.99414 1.32178 5.40039 1.32178C6.44102 1.32178 7.42539 1.65928 8.26914 2.30615C8.52227 2.50303 8.77539 2.72803 9.00039 2.98115C9.22539 2.72803 9.47852 2.50303 9.73164 2.30615C10.5754 1.65928 11.5316 1.32178 12.6004 1.32178C14.0066 1.32178 15.2723 1.88428 16.2285 2.89678C17.1566 3.88115 17.6629 5.23115 17.6629 6.69365C17.6629 8.18428 17.1004 9.53428 15.9191 10.9405C14.9066 12.1499 13.4723 13.3593 11.8129 14.7655C11.2504 15.2437 10.6035 15.778 9.95664 16.3405C9.70352 16.5655 9.33789 16.7062 9.00039 16.7062ZM5.40039 2.27803C4.27539 2.27803 3.23477 2.72803 2.50352 3.54365C1.74414 4.35928 1.35039 5.45615 1.35039 6.66553C1.35039 7.90303 1.82852 9.05615 2.84102 10.2937C3.79727 11.4468 5.20352 12.628 6.83477 14.0062C7.39727 14.4843 8.04414 15.0187 8.69102 15.6093C8.85977 15.7499 9.14102 15.7499 9.30977 15.6093C9.98477 15.0468 10.6035 14.4843 11.166 14.0062C12.7973 12.628 14.2035 11.4468 15.1598 10.2937C16.1723 9.05615 16.6504 7.90303 16.6504 6.66553C16.6504 5.45615 16.2285 4.35928 15.4973 3.54365C14.7379 2.72803 13.7254 2.27803 12.6004 2.27803C11.7566 2.27803 10.9973 2.53115 10.3504 3.06553C10.0691 3.2624 9.84414 3.51553 9.59102 3.79678C9.45039 3.96553 9.22539 4.07803 9.00039 4.07803C8.77539 4.07803 8.55039 3.96553 8.40977 3.79678C8.18477 3.51553 7.93164 3.2624 7.65039 3.06553C7.00352 2.55928 6.24414 2.27803 5.40039 2.27803Z" fill="#212B36"/>
</svg>
