<svg width="13" height="12" viewBox="0 0 13 12" fill="none" xmlns="http://www.w3.org/2000/svg">
<path d="M6.3125 11.125C6 11.125 5.625 11 5.375 10.75C1.3125 7.1875 1.25 7.125 1.25 7.0625L1.1875 7C0.437499 6.25 0 5.1875 0 4.125V4C0.0625 1.75 1.875 0 4.125 0C4.8125 0 5.75 0.375 6.3125 1.125C6.875 0.375 7.875 0 8.5625 0C10.8125 0 12.5625 1.75 12.6875 4V4.125C12.6875 5.25 12.25 6.25 11.5 7.0625L11.4375 7.125C11.375 7.1875 10.875 7.625 7.3125 10.8125C7 11 6.6875 11.125 6.3125 11.125ZM2.1875 6.875C2.4375 7.125 3.6875 8 6 10C6.1875 10.1875 6.4375 10.1875 6.625 10C9 7.875 10.375 6.6875 10.6875 6.4375L10.75 6.375C11.375 5.75 11.6875 4.9375 11.6875 4.125V4C11.625 2.25 10.25 0.9375 8.5 0.9375C8.0625 0.9375 7.1875 1.25 6.875 1.9375C6.75 2.1875 6.5 2.3125 6.25 2.3125C6 2.3125 5.75 2.1875 5.625 1.9375C5.3125 1.3125 4.5 0.9375 4 0.9375C2.3125 0.9375 0.875 2.3125 0.8125 4V4.1875C0.8125 5 1.1875 5.8125 1.75 6.375L2.1875 6.875Z" fill="#6C757D" fill-opacity="0.6"/>
</svg>
