<svg width="26" height="26" viewBox="0 0 26 26" fill="none" xmlns="http://www.w3.org/2000/svg">
<path d="M23.2783 8.00315H22.0596L19.2971 0.975028C19.1346 0.609403 18.7283 0.446903 18.3627 0.568778C17.9971 0.731278 17.8346 1.13753 17.9564 1.50315L20.5158 8.04378H5.44395L8.00332 1.50315C8.16582 1.13753 7.9627 0.731278 7.59707 0.568778C7.23145 0.406278 6.8252 0.609403 6.6627 0.975028L3.9002 8.00315H2.68145C2.07207 8.00315 1.54395 8.49065 1.54395 9.14065V12.5938C1.54395 13.2032 2.03145 13.7313 2.68145 13.7313H2.72207L3.77832 22.9938C3.94082 24.4157 5.15957 25.5125 6.62207 25.5125H19.2971C20.7596 25.5125 21.9783 24.4157 22.1408 22.9938L23.1971 13.7313H23.2377C23.8471 13.7313 24.3752 13.2438 24.3752 12.5938V9.14065C24.4158 8.53128 23.9283 8.00315 23.2783 8.00315ZM3.00645 9.42503H22.9939V12.2688H3.00645V9.42503ZM20.7596 22.7907C20.6783 23.5219 20.0689 24.05 19.3377 24.05H6.6627C5.93145 24.05 5.32207 23.5219 5.24082 22.7907L4.18457 13.6907H21.8158L20.7596 22.7907Z" fill="#212B36"/>
<path d="M8.73418 20.6375C9.14043 20.6375 9.46543 20.3125 9.46543 19.9062V16.7781C9.46543 16.3719 9.14043 16.0469 8.73418 16.0469C8.32793 16.0469 8.00293 16.3719 8.00293 16.7781V19.9062C8.00293 20.3125 8.32793 20.6375 8.73418 20.6375Z" fill="#212B36"/>
<path d="M17.2654 20.6375C17.6717 20.6375 17.9967 20.3125 17.9967 19.9062V16.7781C17.9967 16.3719 17.6717 16.0469 17.2654 16.0469C16.8592 16.0469 16.5342 16.3719 16.5342 16.7781V19.9062C16.5748 20.3125 16.8998 20.6375 17.2654 20.6375Z" fill="#212B36"/>
</svg>
