<svg width="12" height="6" viewBox="0 0 12 6" fill="none" xmlns="http://www.w3.org/2000/svg">
<path d="M5.78941 5.40046C5.59434 5.40046 5.39926 5.33284 5.2367 5.1807L0.880106 0.920728C0.766315 0.802396 0.766315 0.616445 0.863851 0.498112C0.977642 0.37978 1.15646 0.37978 1.27025 0.481208L5.62685 4.74118C5.70813 4.8257 5.85443 4.8257 5.95197 4.74118L10.3086 0.481208C10.4224 0.362875 10.6012 0.37978 10.715 0.498112C10.8288 0.616445 10.8125 0.802396 10.6987 0.920728L6.34211 5.16379C6.17955 5.31594 5.98448 5.40046 5.78941 5.40046Z" fill="#212B36"/>
<path fill-rule="evenodd" clip-rule="evenodd" d="M4.95705 5.4667L0.591649 1.19812C0.331431 0.927515 0.33377 0.512326 0.555188 0.243696L0.564922 0.231887L0.57553 0.220855C0.843266 -0.0575644 1.26742 -0.0571462 1.5364 0.182609L1.5433 0.188754L5.78941 4.34069L10.0253 0.198704C10.3263 -0.108224 10.7651 -0.0268578 11.0033 0.220855C11.2926 0.521698 11.2216 0.954046 10.987 1.19798L10.9779 1.20743L6.61549 5.4559C6.39165 5.66539 6.10229 5.80046 5.78941 5.80046C5.49819 5.80046 5.20387 5.69783 4.96337 5.47274L4.95705 5.4667ZM10.3086 0.481208L5.95197 4.74118C5.85443 4.8257 5.70813 4.8257 5.62685 4.74118L1.27025 0.481208C1.15646 0.37978 0.977642 0.37978 0.863851 0.498112C0.766315 0.616445 0.766315 0.802396 0.880106 0.920728L5.2367 5.1807C5.39926 5.33284 5.59434 5.40046 5.78941 5.40046C5.98448 5.40046 6.17955 5.31594 6.34211 5.16379L10.6987 0.920728C10.8125 0.802396 10.8288 0.616445 10.715 0.498112C10.6012 0.37978 10.4224 0.362875 10.3086 0.481208Z" fill="#212B36"/>
</svg>
