<svg width="26" height="26" viewBox="0 0 26 26" fill="none" xmlns="http://www.w3.org/2000/svg">
<path d="M13.0002 23C12.5716 23 12.1073 22.8537 11.7859 22.5246C10.9645 21.7934 10.1431 21.0987 9.42877 20.4771C7.32162 18.6489 5.5002 17.0767 4.21448 15.5045C2.71448 13.6764 2.0002 11.9213 2.0002 9.9835C2.0002 8.08222 2.64305 6.32719 3.82162 5.04748C5.0002 3.73121 6.64305 2.99995 8.42877 2.99995C9.7502 2.99995 11.0002 3.43871 12.0716 4.27966C12.3931 4.5356 12.7145 4.8281 13.0002 5.15717C13.2859 4.8281 13.6073 4.5356 13.9288 4.27966C15.0002 3.43871 16.2145 2.99995 17.5716 2.99995C19.3573 2.99995 20.9645 3.73121 22.1788 5.04748C23.3573 6.32719 24.0002 8.08222 24.0002 9.9835C24.0002 11.9213 23.2859 13.6764 21.7859 15.5045C20.5002 17.0767 18.6788 18.6489 16.5716 20.4771C15.8573 21.0987 15.0359 21.7934 14.2145 22.5246C13.8931 22.8171 13.4288 23 13.0002 23ZM8.42877 4.2431C7.0002 4.2431 5.67877 4.8281 4.7502 5.88843C3.78591 6.94876 3.28591 8.37472 3.28591 9.94694C3.28591 11.5557 3.89305 13.0548 5.17877 14.6636C6.39305 16.1627 8.17877 17.6983 10.2502 19.4899C10.9645 20.1115 11.7859 20.8062 12.6073 21.574C12.8216 21.7568 13.1788 21.7568 13.3931 21.574C14.2502 20.8427 15.0359 20.1115 15.7502 19.4899C17.8216 17.6983 19.6073 16.1627 20.8216 14.6636C22.1073 13.0548 22.7145 11.5557 22.7145 9.94694C22.7145 8.37472 22.1788 6.94876 21.2502 5.88843C20.2859 4.8281 19.0002 4.2431 17.5716 4.2431C16.5002 4.2431 15.5359 4.57216 14.7145 5.26686C14.3573 5.5228 14.0716 5.85187 13.7502 6.2175C13.5716 6.43688 13.2859 6.58313 13.0002 6.58313C12.7145 6.58313 12.4288 6.43688 12.2502 6.2175C11.9645 5.85187 11.6431 5.5228 11.2859 5.26686C10.4645 4.60873 9.5002 4.2431 8.42877 4.2431Z" fill="#212B36"/>
<path fill-rule="evenodd" clip-rule="evenodd" d="M12.2585 4.04497C12.5091 4.24452 12.7619 4.46733 13.0002 4.7136C13.2385 4.46733 13.4913 4.24452 13.7419 4.04497L13.7435 4.04366C14.8653 3.16318 16.1442 2.69995 17.5716 2.69995C19.4444 2.69995 21.1305 3.46871 22.3993 4.84407C23.6343 6.18509 24.3002 8.01539 24.3002 9.9835C24.3002 12.0063 23.5508 13.8263 22.0181 15.6944C20.7379 17.26 18.9398 18.8199 16.8903 20.5978L16.7686 20.7034C16.5209 20.9189 16.2618 21.142 15.995 21.3718C15.4876 21.8086 14.9524 22.2694 14.4152 22.7476C14.04 23.0884 13.5048 23.3 13.0002 23.3C12.5141 23.3 11.969 23.1362 11.579 22.7421C11.0438 22.2658 10.5108 21.8069 10.0054 21.3717C9.73865 21.1421 9.47956 20.919 9.23189 20.7035C9.1912 20.6682 9.15061 20.6329 9.11012 20.5978C7.0607 18.8199 5.26261 17.2601 3.98239 15.6946C2.44959 13.8264 1.7002 12.0064 1.7002 9.9835C1.7002 8.01615 2.36539 6.18669 3.59952 4.8458C4.83546 3.46633 6.55928 2.69995 8.42877 2.69995C9.81948 2.69995 11.1343 3.16257 12.2568 4.04367L12.2585 4.04497ZM3.82162 5.04748C2.64305 6.32719 2.0002 8.08222 2.0002 9.9835C2.0002 11.9213 2.71448 13.6764 4.21448 15.5045C5.47824 17.0499 7.25956 18.5952 9.32105 20.3836L9.42877 20.4771C9.67408 20.6906 9.93203 20.9127 10.1983 21.1419C10.7073 21.5802 11.2466 22.0445 11.7859 22.5246C12.1073 22.8537 12.5716 23 13.0002 23C13.4288 23 13.8931 22.8171 14.2145 22.5246C14.7538 22.0445 15.2931 21.5801 15.8021 21.1419C16.0684 20.9127 16.3263 20.6906 16.5716 20.4771L16.6793 20.3837C18.7408 18.5952 20.5222 17.0499 21.7859 15.5045C23.2859 13.6764 24.0002 11.9213 24.0002 9.9835C24.0002 8.08222 23.3573 6.32719 22.1788 5.04748C20.9645 3.73121 19.3573 2.99995 17.5716 2.99995C16.2145 2.99995 15.0002 3.43871 13.9288 4.27966C13.6818 4.47633 13.4348 4.6946 13.204 4.93445C13.1344 5.00673 13.0664 5.08097 13.0002 5.15717C12.934 5.08097 12.866 5.00673 12.7964 4.93445C12.5656 4.6946 12.3186 4.47633 12.0716 4.27966C11.0002 3.43871 9.7502 2.99995 8.42877 2.99995C6.64305 2.99995 5.0002 3.73121 3.82162 5.04748ZM4.97214 6.09028C4.06508 7.08768 3.58591 8.43827 3.58591 9.94694C3.58591 11.4694 4.15695 12.9042 5.41247 14.4755C6.58673 15.9249 8.31036 17.4156 10.3452 19.1754L10.4464 19.263C10.5954 19.3926 10.7502 19.5264 10.9084 19.6632C11.5028 20.177 12.1549 20.7407 12.8062 21.3492C12.9092 21.4329 13.0976 21.4317 13.1983 21.3458C13.6996 20.9181 14.1671 20.4988 14.6143 20.0977C14.9361 19.809 15.2474 19.5297 15.5533 19.2636L15.6552 19.1754C17.6901 17.4156 19.4137 15.9249 20.588 14.4754C21.8434 12.9042 22.4145 11.4694 22.4145 9.94694C22.4145 8.4442 21.9031 7.09048 21.0264 6.08822C20.1174 5.08981 18.9122 4.5431 17.5716 4.5431C16.5665 4.5431 15.672 4.84995 14.9082 5.49593L14.899 5.5037L14.8892 5.51071C14.5695 5.73981 14.3094 6.03571 13.9883 6.40108L13.979 6.4116C13.7476 6.69306 13.3807 6.88313 13.0002 6.88313C12.6176 6.88313 12.2487 6.69094 12.0175 6.40689L12.0138 6.40226C11.7408 6.05294 11.4394 5.74593 11.1112 5.51071L11.1046 5.50602L11.0983 5.50098C10.3264 4.88253 9.42742 4.5431 8.42877 4.5431C7.08392 4.5431 5.84571 5.09283 4.97589 6.08608L4.97214 6.09028ZM13.7502 6.2175L13.7749 6.18937C14.0864 5.835 14.3665 5.51622 14.7145 5.26686C15.5359 4.57216 16.5002 4.2431 17.5716 4.2431C19.0002 4.2431 20.2859 4.8281 21.2502 5.88843C22.1788 6.94876 22.7145 8.37472 22.7145 9.94694C22.7145 11.5557 22.1073 13.0548 20.8216 14.6636C19.6304 16.1342 17.8892 17.6401 15.8678 19.3882L15.7502 19.4899C15.453 19.7485 15.1435 20.0261 14.8216 20.3147C14.3698 20.7199 13.8936 21.1469 13.3931 21.574C13.1788 21.7568 12.8216 21.7568 12.6073 21.574C11.9588 20.9678 11.3103 20.4071 10.7145 19.8921C10.5556 19.7548 10.4005 19.6207 10.2502 19.4899L10.1326 19.3882C8.11124 17.6401 6.37002 16.1342 5.17877 14.6636C3.89305 13.0548 3.28591 11.5557 3.28591 9.94694C3.28591 8.37472 3.78591 6.94876 4.7502 5.88843C5.67877 4.8281 7.0002 4.2431 8.42877 4.2431C9.5002 4.2431 10.4645 4.60873 11.2859 5.26686C11.6431 5.5228 11.9645 5.85187 12.2502 6.2175C12.4288 6.43688 12.7145 6.58313 13.0002 6.58313C13.2859 6.58313 13.5716 6.43688 13.7502 6.2175Z" fill="#212B36"/>
</svg>
