<svg width="5" height="10" viewBox="0 0 5 10" fill="none" xmlns="http://www.w3.org/2000/svg">
<path d="M4.6552 5.34793C4.6552 5.51608 4.59691 5.68423 4.46577 5.82436L0.793668 9.57975C0.691666 9.67784 0.531376 9.67784 0.429373 9.59376C0.32737 9.49567 0.32737 9.34154 0.414801 9.24345L4.0869 5.48806C4.15976 5.41799 4.15976 5.29188 4.0869 5.2078L0.414801 1.45241C0.312798 1.35433 0.32737 1.20019 0.429373 1.1021C0.531375 1.00401 0.691665 1.01802 0.793668 1.11611L4.45119 4.8715C4.58234 5.01163 4.6552 5.17978 4.6552 5.34793Z" fill="#3056D3"/>
<path fill-rule="evenodd" clip-rule="evenodd" d="M4.71229 6.06542L1.03278 9.8284C0.799518 10.0527 0.441625 10.0507 0.210066 9.85983L0.199887 9.85144L0.190377 9.8423C-0.0496206 9.61151 -0.0492601 9.24588 0.157409 9.01402L0.162706 9.00808L3.74167 5.34793L0.171283 1.69656C-0.0932893 1.43713 -0.0231519 1.0589 0.190377 0.853566C0.449703 0.604191 0.822388 0.665372 1.03266 0.867578L1.04081 0.875411L4.70299 4.63584C4.88357 4.82879 5 5.07822 5 5.34793C5 5.59896 4.91153 5.85266 4.71751 6.05997L4.71229 6.06542ZM0.414801 1.45241L4.0869 5.2078C4.15976 5.29188 4.15976 5.41799 4.0869 5.48806L0.414801 9.24345C0.32737 9.34154 0.32737 9.49567 0.429373 9.59376C0.531376 9.67784 0.691666 9.67784 0.793668 9.57975L4.46577 5.82436C4.59691 5.68423 4.6552 5.51608 4.6552 5.34793C4.6552 5.17978 4.58234 5.01163 4.45119 4.8715L0.793668 1.11611C0.691665 1.01802 0.531375 1.00401 0.429373 1.1021C0.32737 1.20019 0.312798 1.35433 0.414801 1.45241Z" fill="#3056D3"/>
</svg>
