<svg width="26" height="26" viewBox="0 0 26 26" fill="none" xmlns="http://www.w3.org/2000/svg">
<path fill-rule="evenodd" clip-rule="evenodd" d="M4 10.9229C4 6.54719 7.54719 3 11.9229 3C16.2985 3 19.8457 6.54719 19.8457 10.9229C19.8457 15.2985 16.2985 18.8457 11.9229 18.8457C7.54719 18.8457 4 15.2985 4 10.9229ZM11.9229 4.77157C8.5256 4.77157 5.77157 7.5256 5.77157 10.9229C5.77157 14.3201 8.5256 17.0742 11.9229 17.0742C15.3201 17.0742 18.0742 14.3201 18.0742 10.9229C18.0742 7.5256 15.3201 4.77157 11.9229 4.77157Z" fill="#212B36"/>
<path fill-rule="evenodd" clip-rule="evenodd" d="M16.3733 16.511C16.7613 16.213 17.3173 16.286 17.6153 16.674L21.7096 22.0051C22.0076 22.3931 21.9346 22.9492 21.5466 23.2471C21.1586 23.5451 20.6026 23.4721 20.3046 23.0841L16.2103 17.753C15.9123 17.365 15.9853 16.809 16.3733 16.511Z" fill="#212B36"/>
</svg>
