<svg width="16" height="16" viewBox="0 0 16 16" fill="none" xmlns="http://www.w3.org/2000/svg">
<circle cx="8" cy="8" r="8" fill="#3056D3"/>
<path d="M7.53125 12.1094C7.01563 12.1094 6.55599 12.0208 6.15234 11.8437C5.7513 11.6667 5.43229 11.4206 5.19531 11.1055C4.96094 10.7878 4.83333 10.4193 4.8125 10H5.79688C5.81771 10.2578 5.90625 10.4805 6.0625 10.668C6.21875 10.8529 6.42318 10.9961 6.67578 11.0977C6.92839 11.1992 7.20833 11.25 7.51563 11.25C7.85938 11.25 8.16406 11.1901 8.42969 11.0703C8.69531 10.9505 8.90365 10.7839 9.05469 10.5703C9.20573 10.3568 9.28125 10.1094 9.28125 9.82812C9.28125 9.53385 9.20833 9.27474 9.0625 9.05078C8.91667 8.82422 8.70313 8.64714 8.42188 8.51953C8.14063 8.39193 7.79688 8.32812 7.39063 8.32812H6.75V7.46875H7.39063C7.70833 7.46875 7.98698 7.41146 8.22656 7.29687C8.46875 7.18229 8.65755 7.02083 8.79297 6.8125C8.93099 6.60417 9 6.35937 9 6.07812C9 5.80729 8.9401 5.57161 8.82031 5.37109C8.70052 5.17057 8.53125 5.01432 8.3125 4.90234C8.09635 4.79036 7.84115 4.73437 7.54688 4.73437C7.27083 4.73437 7.01042 4.78516 6.76563 4.88672C6.52344 4.98568 6.32552 5.13021 6.17188 5.32031C6.01823 5.50781 5.9349 5.73438 5.92188 6H4.98438C5 5.58073 5.1263 5.21354 5.36328 4.89844C5.60026 4.58073 5.91016 4.33333 6.29297 4.15625C6.67839 3.97917 7.10156 3.89062 7.5625 3.89062C8.05729 3.89062 8.48177 3.99089 8.83594 4.19141C9.1901 4.38932 9.46224 4.65104 9.65234 4.97656C9.84245 5.30208 9.9375 5.65365 9.9375 6.03125C9.9375 6.48177 9.81901 6.86589 9.58203 7.18359C9.34766 7.5013 9.02865 7.72135 8.625 7.84375V7.90625C9.13021 7.98958 9.52474 8.20443 9.80859 8.55078C10.0924 8.89453 10.2344 9.32031 10.2344 9.82812C10.2344 10.263 10.1159 10.6536 9.87891 11C9.64453 11.3437 9.32422 11.6146 8.91797 11.8125C8.51172 12.0104 8.04948 12.1094 7.53125 12.1094Z" fill="white"/>
</svg>
