<svg width="160" height="41" viewBox="0 0 160 41" fill="none" xmlns="http://www.w3.org/2000/svg">
<path opacity="0.56" d="M15.4837 3.41667C15.4837 1.52896 17.0235 0 18.9246 0H20.645C32.0472 0 41.2902 9.17802 41.2902 20.5V37.5833C41.2902 39.471 39.7504 41 37.8493 41H36.1289C24.7268 41 15.4837 31.822 15.4837 20.5V3.41667Z" fill="white"/>
<path opacity="0.88" d="M17.2043 40.9997C26.706 40.9997 34.4086 33.3512 34.4086 23.9163C34.4086 14.4815 26.706 6.83301 17.2043 6.83301C7.70263 6.83301 0 14.4815 0 23.9163C0 33.3512 7.70263 40.9997 17.2043 40.9997Z" fill="white"/>
<path d="M64.8184 32.5732H70.5586L62.4997 10.25H56.2244L48.172 32.5732H53.8464L55.1806 28.63H63.4838L64.8184 32.5732ZM62.0903 24.4325H56.6077L59.329 16.2601L62.0903 24.4325ZM81.1544 25.9271L77.0653 14.8291H71.0081L78.2081 31.969L74.1458 41H79.9849L91.0825 14.8291H85.2167L81.1544 25.9271ZM98.461 24.3371C98.461 21.2844 99.9539 20.394 102.524 20.394H104.01V14.6383C101.632 14.6383 99.6963 15.9103 98.461 17.7864V14.8291H93.0378V32.5732H98.461V24.3371ZM123.913 23.7011C123.913 18.0726 119.923 14.5747 114.718 14.5747C109.552 14.5747 105.523 18.0726 105.523 23.7011C105.523 29.3296 109.46 32.8275 114.658 32.8275C119.857 32.8275 123.913 29.3296 123.913 23.7011ZM111.045 23.7011C111.045 20.6802 112.756 19.281 114.718 19.281C116.62 19.281 118.397 20.6802 118.397 23.7011C118.397 26.6903 116.594 28.1213 114.658 28.1213C112.69 28.1213 111.045 26.6903 111.045 23.7011ZM135.658 24.4007C135.658 30.1564 139.397 32.7958 143.968 32.7958C148.532 32.7958 152.305 30.1564 152.305 24.4007V10.409H149.418V24.4325C149.418 28.5029 147.264 30.2518 143.994 30.2518C140.731 30.2518 138.545 28.5029 138.545 24.4325V10.409H135.658V24.4007ZM157.12 32.5732H160V10.409H157.12V32.5732Z" fill="white"/>
</svg>
