<svg width="170" height="36" viewBox="0 0 170 36" fill="none" xmlns="http://www.w3.org/2000/svg">
<g clip-path="url(#clip0_121_53807)">
<path d="M63.0052 25.4497H60.213V10.1011H65.9476C66.64 10.0906 67.3262 10.2332 67.9581 10.5187C68.539 10.7831 69.0619 11.1601 69.4968 11.6281C69.9218 12.084 70.2581 12.6155 70.4885 13.1956C70.8913 14.1897 70.9529 15.2904 70.664 16.3237C70.5458 16.7502 70.3684 17.1576 70.1362 17.5339C69.6409 18.3293 68.9357 18.9708 68.0992 19.3864C68.8457 20.409 69.588 21.4217 70.3265 22.4242C71.0644 23.4268 71.811 24.4354 72.5655 25.4497H70.3721C70.1922 25.4455 70.0142 25.4126 69.8436 25.3525C69.6237 25.2796 69.4136 25.1772 69.2202 25.0481C68.9806 24.8923 68.7552 24.7146 68.5482 24.5173C68.2957 24.2691 68.069 23.9957 67.8719 23.7017L65.0902 19.9314H63.0052V25.4497ZM66.0339 17.1057C66.3006 17.1042 66.5636 17.0438 66.8051 16.9288C67.0465 16.8187 67.2646 16.6618 67.4457 16.467C67.6286 16.2724 67.7752 16.0458 67.8774 15.7983C67.9828 15.5499 68.037 15.2827 68.037 15.0126C68.0376 14.738 67.9834 14.4661 67.8774 14.2129C67.774 13.966 67.628 13.7395 67.4457 13.5442C67.2639 13.3504 67.0459 13.1941 66.8051 13.0842C66.5642 12.9684 66.3006 12.9079 66.0339 12.9072H63.0052V17.0952L66.0339 17.1057Z" fill="white"/>
<path d="M80.0242 10.1006H82.5558L89.2421 25.4497H87.5008C87.1164 25.4531 86.7382 25.3456 86.4124 25.1401C86.0865 24.9348 85.8297 24.6358 85.6751 24.2819L84.7665 22.2047H77.8136L76.9179 24.2819C76.8446 24.4548 76.7424 24.6144 76.6174 24.7543C76.4892 24.8966 76.342 25.0204 76.1806 25.1223C76.0162 25.2274 75.8375 25.3084 75.6509 25.363C75.4655 25.4205 75.2727 25.4497 75.0793 25.4497H73.3386L80.0242 10.1006ZM79.0522 19.3862H83.5284L81.5315 14.7381C81.4459 14.5498 81.383 14.3519 81.3436 14.1489C81.3122 13.9719 81.2913 13.8339 81.2839 13.742C81.2709 13.8805 81.2494 14.0181 81.221 14.1542C81.1804 14.3541 81.1219 14.5498 81.0443 14.7381L79.0522 19.3862Z" fill="white"/>
<path d="M97.2804 25.4497H94.4716V18.9475C94.4753 18.7347 94.4241 18.5245 94.3231 18.3373C94.2024 18.1266 94.0712 17.9228 93.9283 17.7269L88.3157 10.1012H90.4598C90.8904 10.0919 91.3166 10.1873 91.7028 10.379C92.0644 10.5655 92.3712 10.8421 92.5941 11.1822L95.6136 15.2852C95.7016 15.4041 95.7676 15.5385 95.8076 15.6814C95.8427 15.816 95.8618 15.9027 95.8686 15.9381C95.8821 15.8528 95.9024 15.7688 95.9289 15.6868C95.9714 15.5406 96.0417 15.4042 96.1365 15.2852L99.1449 11.1929C99.3629 10.8446 99.6715 10.5617 100.037 10.3736C100.423 10.1854 100.849 10.0921 101.278 10.1012H103.449L97.8212 17.7374C97.7368 17.8525 97.6604 17.9568 97.5994 18.0542C97.5354 18.1453 97.4768 18.2398 97.4226 18.3373C97.374 18.429 97.3376 18.5265 97.3124 18.6274C97.2859 18.7321 97.2736 18.8396 97.2748 18.9475L97.2804 25.4497Z" fill="white"/>
<path d="M118.889 18.0819V23.9787C118.543 24.2985 118.153 24.5671 117.731 24.7765C117.299 24.9902 116.846 25.1588 116.379 25.2795C115.888 25.4048 115.389 25.4903 114.884 25.5355C114.371 25.5814 113.848 25.6044 113.319 25.6044C112.267 25.6118 111.224 25.402 110.258 24.9884C109.325 24.5927 108.476 24.0235 107.757 23.3116C107.041 22.5991 106.469 21.756 106.073 20.8283C105.665 19.8623 105.455 18.8252 105.455 17.7775C105.455 16.7298 105.665 15.6927 106.073 14.7267C106.47 13.7959 107.045 12.9504 107.764 12.2363C108.484 11.5248 109.332 10.9558 110.265 10.5596C112.202 9.75173 114.381 9.74029 116.326 10.5277C117.243 10.9087 118.078 11.4577 118.79 12.1463L118.684 12.2434C118.558 12.3699 118.411 12.4728 118.25 12.5469C118.084 12.6161 117.906 12.6503 117.728 12.6475C117.481 12.6492 117.241 12.5745 117.039 12.4339C116.508 12.0704 115.927 11.7845 115.313 11.5851C114.671 11.3794 114 11.2769 113.326 11.2815C112.74 11.2792 112.156 11.3562 111.592 11.5109C111.046 11.6589 110.522 11.8797 110.036 12.1675C109.555 12.4504 109.11 12.7912 108.714 13.1823C108.316 13.5743 107.974 14.0164 107.694 14.4972C107.409 14.9859 107.187 15.5083 107.034 16.0522C106.875 16.6133 106.796 17.1937 106.797 17.7766C106.796 18.3605 106.877 18.9417 107.04 19.5027C107.356 20.5916 107.951 21.58 108.767 22.3709C109.173 22.7638 109.625 23.1053 110.114 23.3875C110.612 23.6741 111.146 23.8948 111.7 24.0441C112.267 24.1983 112.854 24.2755 113.444 24.2735C114.172 24.2759 114.9 24.1774 115.601 23.9805C116.299 23.7822 116.964 23.4849 117.576 23.0981V19.4162H116.213C116.037 19.4194 115.864 19.3862 115.702 19.3191C115.54 19.252 115.394 19.1522 115.273 19.0262C115.162 18.9067 115.075 18.767 115.016 18.615C114.956 18.4577 114.926 18.2908 114.926 18.1226V18.0802L118.889 18.0819Z" fill="white"/>
<path d="M124.719 25.4498H123.367V10.1007H128.792C129.376 10.0961 129.953 10.2106 130.491 10.4369C131.004 10.6548 131.472 10.9676 131.867 11.3588C132.263 11.7506 132.579 12.2144 132.797 12.7247C133.026 13.2523 133.141 13.8209 133.139 14.3949C133.139 14.9176 133.047 15.4362 132.867 15.9272C132.694 16.4075 132.442 16.8565 132.122 17.256C131.804 17.6477 131.416 17.9765 130.976 18.2255C130.528 18.4794 130.031 18.6379 129.517 18.6909L134.64 25.4498H134.003C133.261 25.4498 132.711 25.1774 132.36 24.6377L127.852 18.6909H124.719V25.4498ZM124.719 11.4384V17.3516H128.792C129.191 17.354 129.588 17.2759 129.955 17.1215C130.311 16.9729 130.633 16.7578 130.906 16.4881C131.179 16.2174 131.397 15.8979 131.549 15.5469C131.708 15.1835 131.79 14.7911 131.786 14.3949C131.79 14.0011 131.708 13.611 131.549 13.2502C131.24 12.5422 130.67 11.9781 129.955 11.6737C129.588 11.5161 129.193 11.4359 128.792 11.4384H124.719Z" fill="white"/>
<path d="M139.426 25.4497H138.191V10.1006H139.426V25.4497Z" fill="white"/>
<path d="M144.677 25.4496V10.1006H150.301C151.657 10.0953 152.988 10.4578 154.155 11.1499C155.289 11.8215 156.235 12.7705 156.905 13.9082C157.593 15.0819 157.956 16.4187 157.956 17.7804C157.956 19.1421 157.593 20.4791 156.905 21.6527C156.571 22.2187 156.168 22.7407 155.704 23.2061C154.77 24.1451 153.607 24.8237 152.333 25.1754C151.672 25.3603 150.987 25.4525 150.301 25.4496H144.677ZM150.301 24.1102C151.149 24.117 151.988 23.9478 152.769 23.613C153.516 23.2922 154.196 22.8324 154.774 22.2578C155.351 21.6809 155.811 20.997 156.13 20.2442C156.457 19.4643 156.625 18.6266 156.625 17.7804C156.625 16.9342 156.457 16.0966 156.13 15.3167C155.811 14.5627 155.351 13.8772 154.774 13.2978C154.198 12.721 153.516 12.2592 152.769 11.9371C151.988 11.6019 151.149 11.432 150.301 11.4382H146.01V24.1102H150.301Z" fill="white"/>
<path d="M167.636 12.1273C167.472 12.0142 167.326 11.9065 167.203 11.8075C166.944 11.6 166.643 11.4538 166.319 11.38C166.086 11.3326 165.848 11.3112 165.611 11.3165C165.21 11.3142 164.809 11.3848 164.434 11.5249C164.077 11.6559 163.745 11.8458 163.452 12.0867C163.178 12.314 162.95 12.5939 162.785 12.9099C162.623 13.2161 162.537 13.5578 162.538 13.9044C162.528 14.2393 162.58 14.5732 162.694 14.8884C162.808 15.1573 162.991 15.3912 163.225 15.5668C163.523 15.793 163.851 15.9769 164.2 16.1127C164.602 16.2799 165.101 16.4671 165.694 16.6744C166.009 16.7921 166.304 16.8993 166.578 16.9959C166.849 17.0948 167.11 17.1973 167.349 17.2996C167.582 17.3977 167.809 17.5081 168.029 17.63C168.24 17.749 168.442 17.8831 168.634 18.0311C169.116 18.3904 169.485 18.8811 169.695 19.4443C169.903 20.0318 170.006 20.6513 170 21.2744C170.009 21.8994 169.873 22.518 169.603 23.0816C169.347 23.6067 168.983 24.0715 168.534 24.4454C168.066 24.8295 167.53 25.1214 166.953 25.3057C166.327 25.5096 165.672 25.6104 165.013 25.6043C163.679 25.6043 162.554 25.2086 161.64 24.417C161.411 24.2082 161.197 23.9814 161.003 23.7388C160.848 23.5432 160.706 23.3372 160.581 23.1223L160.74 23.0268C160.944 22.9015 161.176 22.8314 161.415 22.8237C161.581 22.8229 161.747 22.8462 161.908 22.8926C162.066 22.9402 162.21 23.0271 162.326 23.1452C162.571 23.3787 162.839 23.5881 163.124 23.7706C163.335 23.9029 163.562 24.0108 163.797 24.0921C163.996 24.1567 164.201 24.1975 164.408 24.214C164.604 24.2281 164.805 24.2387 165.013 24.2458C165.448 24.2596 165.882 24.2108 166.303 24.1009C166.722 23.9986 167.117 23.8188 167.47 23.571C167.818 23.3249 168.107 23.0052 168.317 22.6347C168.545 22.2194 168.658 21.7512 168.645 21.278C168.665 20.7937 168.578 20.3111 168.388 19.8648C168.227 19.5244 167.983 19.229 167.68 19.0044C167.35 18.7693 166.987 18.5837 166.603 18.4533C166.189 18.3061 165.743 18.14 165.265 17.9551C164.658 17.7131 164.105 17.487 163.605 17.2821C163.146 17.0985 162.717 16.8517 162.326 16.5489C161.974 16.27 161.691 15.9132 161.5 15.5067C161.286 14.9999 161.186 14.4523 161.206 13.9027C161.2 13.3363 161.335 12.7771 161.603 12.2775C161.86 11.7999 162.207 11.3765 162.626 11.0302C163.047 10.6833 163.526 10.4119 164.041 10.2283C164.546 10.0439 165.081 9.94823 165.619 9.94563C166.035 9.94038 166.45 9.99993 166.847 10.1223C167.199 10.2322 167.536 10.3829 167.852 10.5709C168.148 10.7466 168.425 10.9526 168.678 11.1857C168.923 11.4143 169.15 11.6392 169.358 11.8605L169.025 12.0955C168.935 12.1611 168.837 12.2134 168.731 12.2509C168.601 12.2928 168.465 12.3125 168.328 12.3093C168.084 12.3178 167.844 12.2545 167.636 12.1273Z" fill="white"/>
<path d="M55.6784 17.2422V23.676C55.307 24.05 54.8844 24.3705 54.4243 24.6282C53.9752 24.8789 53.4997 25.079 53.0068 25.2247C52.5041 25.3721 51.9887 25.4722 51.4673 25.5239C50.9311 25.5785 50.3924 25.6057 49.8534 25.6052C48.8042 25.6136 47.7646 25.4063 46.799 24.9964C45.8675 24.5997 45.0189 24.0318 44.2975 23.322C43.5801 22.609 43.007 21.7648 42.609 20.8353C42.1948 19.8703 41.9848 18.8301 41.9925 17.7802C41.9846 16.3907 42.3518 15.0246 43.0554 13.8262C43.4001 13.2452 43.8168 12.7099 44.2957 12.2332C45.2595 11.2744 46.456 10.5822 47.7681 10.2243C48.4479 10.0371 49.1501 9.94368 49.855 9.94634C50.4218 9.94547 50.9864 10.0102 51.5381 10.1393C52.0882 10.2671 52.6229 10.4541 53.1327 10.6967C53.6457 10.9454 54.1336 11.2417 54.5906 11.5818C55.0581 11.9274 55.4924 12.3149 55.8897 12.7394L55.2441 13.3925C55.0618 13.5924 54.8382 13.7505 54.5887 13.856C54.3387 13.9614 54.0695 14.0115 53.7985 14.0032C53.4073 14.0064 53.0241 13.8869 52.704 13.6616C52.2957 13.3812 51.8495 13.1607 51.3787 13.0066C50.889 12.848 50.377 12.7686 49.8622 12.7712C49.1923 12.7688 48.529 12.9037 47.9134 13.1677C46.7016 13.6734 45.7315 14.6262 45.2046 15.828C44.9359 16.4417 44.7989 17.1049 44.8024 17.7749C44.7971 18.4564 44.9397 19.1309 45.2204 19.7519C45.6342 20.6614 46.3012 21.4327 47.142 21.9734C47.9827 22.5142 48.9614 22.8018 49.9613 22.8016C50.3024 22.7936 50.6427 22.7646 50.9801 22.7149C51.2986 22.6671 51.6141 22.5996 51.9244 22.5131C52.2488 22.4237 52.5593 22.2902 52.8474 22.1167V19.9591L51.9616 19.9432C51.6956 19.9442 51.4326 19.8874 51.1909 19.7767C50.9549 19.6616 50.7642 19.471 50.6488 19.2352C50.4921 18.8803 50.4222 18.4932 50.4451 18.1059V17.2474L55.6784 17.2422Z" fill="white"/>
<path d="M35.7069 20.2838C36.963 10.4241 30.021 1.40876 20.2014 0.147447C10.3817 -1.11387 1.40298 5.85651 0.146849 15.7163C-1.10934 25.5759 5.83266 34.5913 15.6523 35.8526C25.472 37.1138 34.4507 30.1435 35.7069 20.2838Z" fill="white"/>
<path d="M18.5911 17.7167V19.4421H22.3538V22.3278H18.6175V22.3175C18.5176 22.3175 18.4137 22.3278 18.3138 22.3278C17.7588 22.3294 17.2091 22.2186 16.6974 22.0024C15.954 21.6866 15.317 21.1622 14.863 20.492C14.3055 19.6624 14.0638 18.6591 14.1824 17.6653C14.3009 16.6718 14.7717 15.754 15.5085 15.0801C16.2455 14.4063 17.1994 14.0213 18.1957 13.9954C19.1922 13.9696 20.1646 14.3047 20.9352 14.9395H28.273C28.1792 14.6448 28.0693 14.3541 27.9531 14.0717C27.217 12.321 26.0221 10.8036 24.4954 9.68072C22.9688 8.55782 21.1674 7.8715 19.2832 7.69492C17.3988 7.51829 15.5021 7.85789 13.7949 8.67768C12.0875 9.4974 10.6334 10.7666 9.5875 12.3503C8.54154 13.9338 7.9427 15.7726 7.8548 17.6706C7.76691 19.5689 8.19321 21.4554 9.08833 23.1295C9.98338 24.8037 11.3137 26.2029 12.938 27.1782C14.5622 28.1536 16.4193 28.6685 18.3118 28.6683H28.7072V17.7126L18.5911 17.7167ZM22.3538 26.9266H18.8886C18.7582 26.9266 18.6236 26.9409 18.481 26.943H18.1794C16.677 26.9218 15.2054 26.5125 13.9064 25.7543C12.6074 24.9962 11.5249 23.9149 10.763 22.6146C10.0012 21.3143 9.5859 19.8388 9.55701 18.3304C9.52812 16.8221 9.88674 15.3318 10.5982 14.0031C11.3097 12.6743 12.3501 11.552 13.6192 10.7442C14.8881 9.93664 16.3429 9.47081 17.8433 9.39171C19.3438 9.31273 20.8392 9.62295 22.1855 10.2929C23.5317 10.9627 24.6833 11.9696 25.5294 13.2162H21.4977C20.7309 12.7195 19.8593 12.409 18.9521 12.3096C18.045 12.2101 17.1273 12.3244 16.2717 12.6433C15.4163 12.9623 14.6466 13.4771 14.024 14.1468C13.4011 14.8166 12.9426 15.6229 12.6844 16.5017C12.4263 17.3806 12.3758 18.3078 12.5369 19.2097C12.698 20.1115 13.0663 20.9632 13.6126 21.6973C14.1589 22.4312 14.8679 23.0272 15.6837 23.438C16.4994 23.8487 17.3992 24.0629 18.3118 24.0634H22.3538V26.9266ZM27.0053 26.943H24.0741L24.0904 26.9327H24.0741V24.0673H27.0053V26.943ZM27.0053 22.3318H24.0741V19.4461H27.0053V22.3318Z" fill="white"/>
<path d="M18.0835 17.1718V18.8971H21.8482V21.7828H18.108V21.7727C18.0081 21.7727 17.9041 21.7828 17.8063 21.7828C17.1258 21.7841 16.4555 21.6166 15.855 21.2953C15.2544 20.974 14.7422 20.5087 14.3636 19.9409C13.9791 19.3655 13.7427 18.7032 13.6758 18.0134C13.609 17.3236 13.7136 16.628 13.9804 15.9889C14.2944 15.2415 14.8176 14.6016 15.4868 14.1469C16.0589 13.7596 16.7183 13.5215 17.4052 13.4543C18.092 13.3872 18.7847 13.493 19.4207 13.7621C19.7878 13.9171 20.131 14.1238 20.4398 14.3762H27.7778C27.6819 14.0813 27.5739 13.7908 27.4577 13.5084C26.7191 11.7608 25.5229 10.2467 23.996 9.12707C22.4692 8.00733 20.6688 7.32392 18.7862 7.14913C16.9035 6.97435 15.0088 7.31495 13.3035 8.13461C11.5981 8.95433 10.1457 10.2225 9.10054 11.8045C8.05532 13.3865 7.45648 15.2232 7.36753 17.1195C7.27865 19.0158 7.70286 20.9009 8.59527 22.5745C9.48773 24.2481 10.815 25.6477 12.436 26.6247C14.0572 27.6017 15.9115 28.1196 17.8023 28.1233H28.1976V17.1616L18.0835 17.1718ZM21.8482 26.3816H18.3831C18.2507 26.3816 18.1182 26.3959 17.9756 26.398H17.6799C16.1771 26.379 14.7044 25.9715 13.404 25.2147C12.1037 24.4578 11.0194 23.3774 10.256 22.0774C9.4926 20.7774 9.07566 19.3019 9.04547 17.793C9.01529 16.2841 9.37286 14.793 10.0836 13.4633C10.7944 12.1336 11.8345 11.0103 13.1035 10.2017C14.3727 9.39308 15.8278 8.92638 17.3288 8.84678C18.8297 8.76718 20.3257 9.07735 21.6725 9.74728C23.0193 10.4171 24.1715 11.4242 25.0179 12.6713H20.9901C20.2238 12.1707 19.3518 11.8567 18.4432 11.7543C17.5347 11.652 16.615 11.7641 15.7573 12.0817C14.8996 12.3994 14.1275 12.9138 13.5028 13.584C12.878 14.2541 12.4179 15.0615 12.1589 15.9419C11.8999 16.8222 11.8491 17.7512 12.0109 18.6546C12.1726 19.558 12.5423 20.411 13.0904 21.1457C13.6384 21.8804 14.3499 22.4763 15.1679 22.8862C15.9861 23.296 16.8881 23.5082 17.8023 23.5061H21.8442L21.8482 26.3816ZM26.4998 26.398H23.5687L23.5828 26.3878H23.5687V23.5061H26.4998V26.398ZM26.4998 21.7869H23.5687V18.9012H26.4998V21.7869Z" fill="#212B36"/>
<path d="M21.8483 23.5088H23.5687V24.3294H21.8483V23.5088Z" fill="white"/>
<path d="M20.4562 18.8977H21.8483V19.7183H23.5667V18.8977H24.8283V18.8955H20.4562V18.8977Z" fill="white"/>
</g>
<defs>
<clipPath id="clip0_121_53807">
<rect width="170" height="36" fill="white"/>
</clipPath>
</defs>
</svg>
