<svg width="35" height="35" viewBox="0 0 35 35" fill="none" xmlns="http://www.w3.org/2000/svg">
<path d="M20.6663 0.295472C11.137 -1.4682 2.06415 4.84688 0.295233 14.348C-0.560696 18.9563 0.466419 23.5646 3.09127 27.4333C5.77318 31.302 9.76751 33.8621 14.3325 34.7155C15.4166 34.8862 16.4438 35 17.4709 35C25.7448 35 33.1629 29.0832 34.7036 20.6062C36.4725 11.1051 30.1386 2.00225 20.6663 0.295472ZM32.8205 20.2648C32.7064 20.8337 32.5923 21.4595 32.4211 21.9716L18.555 16.7943V2.00225C19.1257 2.05914 19.7533 2.11604 20.324 2.22982C28.7121 3.76592 34.3041 11.8447 32.8205 20.2648ZM16.5008 2.00225V16.453H2.06415C2.12121 15.8841 2.17828 15.2582 2.2924 14.6893C3.54776 7.57773 9.59632 2.45739 16.5008 2.00225ZM14.7319 32.7243C10.6805 31.9847 7.14266 29.709 4.74606 26.2954C3.09127 23.9628 2.17828 21.232 2.00709 18.5011H17.2997L31.6222 23.849C28.8262 30.1641 21.8646 34.0328 14.7319 32.7243Z" fill="white"/>
</svg>
