<svg width="35" height="21" viewBox="0 0 35 21" fill="none" xmlns="http://www.w3.org/2000/svg">
<path d="M17.5 0.875C8.20312 0.875 0.65625 9.07813 0.65625 19.1406C0.65625 19.6875 1.09375 20.125 1.64062 20.125H33.3594C33.9062 20.125 34.3438 19.6875 34.3438 19.1406C34.3438 9.07813 26.7969 0.875 17.5 0.875ZM19.4687 18.2109L17.9922 13.5078C17.8281 13.0156 17.1719 13.0156 17.0078 13.5078L15.5312 18.2109H2.625C3.0625 9.625 9.57031 2.78906 17.5 2.78906C25.4297 2.78906 31.9375 9.625 32.375 18.2109H19.4687Z" fill="white"/>
<path d="M17.5 6.78125C16.9531 6.78125 16.5156 7.21875 16.5156 7.76562V9.1875C16.5156 9.73437 16.9531 10.1719 17.5 10.1719C18.0469 10.1719 18.4844 9.73437 18.4844 9.1875V7.76562C18.4844 7.21875 18.0469 6.78125 17.5 6.78125Z" fill="white"/>
<path d="M25.8672 10.8828L24.9922 11.8125C24.6094 12.1953 24.6094 12.7969 24.9922 13.1797C25.1563 13.3438 25.4297 13.4531 25.6484 13.4531C25.9219 13.4531 26.1406 13.3438 26.3594 13.1797L27.2344 12.25C27.6172 11.8672 27.6172 11.2656 27.2344 10.8828C26.8516 10.5 26.25 10.5 25.8672 10.8828Z" fill="white"/>
<path d="M9.13281 10.8828C8.80468 10.5 8.14843 10.4453 7.76562 10.8281C7.38281 11.1562 7.32812 11.8125 7.71093 12.1953L8.53125 13.125C8.69531 13.3437 8.96874 13.4531 9.24218 13.4531C9.46093 13.4531 9.67968 13.3984 9.89843 13.2344C10.2812 12.9062 10.3359 12.25 9.95312 11.8672L9.13281 10.8828Z" fill="white"/>
</svg>
