<svg width="35" height="35" viewBox="0 0 35 35" fill="none" xmlns="http://www.w3.org/2000/svg">
<path d="M29.5312 21.656L28.6563 21.1638L29.6953 20.5623C30.7344 19.906 31.3359 18.8123 31.2812 17.6091C31.2266 16.406 30.625 15.3123 29.5312 14.7107L27.8906 13.781L29.6406 12.6873C30.6797 12.031 31.2812 10.9373 31.2266 9.73413C31.1719 8.53101 30.5703 7.43726 29.4766 6.83569L19.25 1.09351C18.2109 0.491943 16.9531 0.546631 15.9141 1.09351L5.41406 7.21851C4.375 7.82007 3.71875 8.91382 3.71875 10.1169C3.71875 11.3201 4.375 12.4138 5.41406 13.0154L7.10938 13.9998L5.41406 14.9841C4.375 15.5857 3.71875 16.6794 3.71875 17.8826C3.71875 19.0857 4.32031 20.1794 5.41406 20.781L6.39844 21.3279L5.46875 21.8748C4.42969 22.4763 3.77344 23.5701 3.77344 24.7732C3.77344 25.9763 4.375 27.0701 5.46875 27.6716L15.9141 33.6873C16.4609 34.0154 17.0078 34.1248 17.6094 34.1248C18.2109 34.1248 18.8125 33.9607 19.3594 33.6326L29.6953 27.2888C30.7344 26.6326 31.3359 25.5388 31.2812 24.3357C31.2266 23.2966 30.625 22.2029 29.5312 21.656ZM5.63281 10.1169C5.63281 9.57007 5.90625 9.13257 6.34375 8.85913L16.8438 2.78882C17.0625 2.67944 17.3359 2.57007 17.5547 2.57007C17.7734 2.57007 18.0469 2.62476 18.2656 2.73413L28.5469 8.47632C28.9844 8.74976 29.2578 9.18726 29.3125 9.73413C29.3125 10.281 29.0391 10.7185 28.6016 10.9919L18.3203 17.3904C17.8828 17.6638 17.2812 17.6638 16.8438 17.3904L6.39844 11.3748C5.90625 11.156 5.63281 10.6638 5.63281 10.1169ZM5.63281 17.9373C5.63281 17.3904 5.90625 16.9529 6.34375 16.6794L9.02344 15.1482L15.8594 19.0857C16.4062 19.4138 16.9531 19.5232 17.5547 19.5232C18.1562 19.5232 18.7578 19.3591 19.3047 19.031L26.0312 14.8748L28.6016 16.2966C29.0391 16.5701 29.3125 17.0076 29.3672 17.5544C29.3672 18.1013 29.0938 18.5388 28.6563 18.8123L18.3203 25.2654C17.8828 25.5388 17.2812 25.5388 16.8438 25.2654L6.39844 19.2498C5.90625 18.9763 5.63281 18.4841 5.63281 17.9373ZM28.6563 25.8123L18.3203 32.2107C17.8828 32.4841 17.2812 32.4841 16.8438 32.2107L6.39844 26.1951C5.96094 25.9216 5.6875 25.4841 5.6875 24.9373C5.6875 24.3904 5.96094 23.9529 6.39844 23.6794L8.3125 22.5857L15.8594 26.9607C16.4062 27.2888 16.9531 27.3982 17.5547 27.3982C18.1562 27.3982 18.7578 27.2341 19.3047 26.906L26.7969 22.2576L28.6563 23.2966C29.0938 23.5701 29.3672 24.0076 29.4219 24.5544C29.3672 25.0466 29.0938 25.5388 28.6563 25.8123Z" fill="white"/>
</svg>
