<svg width="170" height="41" viewBox="0 0 170 41" fill="none" xmlns="http://www.w3.org/2000/svg">
<path d="M44 20.5C44 24.625 40.6237 28 36.4612 28C31.0037 28 28.2287 24.2499 25.5 20.5C22.7713 16.75 19.9962 13 14.5387 13C10.3762 13 7 16.375 7 20.5" stroke="white" stroke-width="4" stroke-miterlimit="10"/>
<path d="M44 20.5C44 16.375 40.6237 13 36.4612 13C31.0038 13 28.2288 16.75 25.5 20.5C22.7712 24.25 19.9962 28 14.5387 28C10.3762 28 7 24.625 7 20.5" stroke="white" stroke-width="4" stroke-miterlimit="10"/>
<path d="M58.5344 29.9576V10.5967H61.072V27.4322H69.0016V29.9576H58.5344ZM71.549 14.6372V11.9435H74.0866V14.6372H71.549ZM71.549 29.9576V15.9841H74.0866V29.9576H71.549ZM105.834 14.6372V11.9435H108.372V14.6372H105.834ZM105.834 29.9576V15.9841H108.372V29.9576H105.834ZM88.3298 21.0768C88.2508 20.5297 88.1316 19.9404 87.9334 19.3512C87.7352 18.7619 87.4179 18.2148 87.061 17.7097C86.6646 17.2046 86.1885 16.7837 85.5545 16.4892C84.9197 16.1945 84.1665 16.0261 83.2545 16.0261C82.0654 16.0261 81.0738 16.2787 80.2415 16.8259C79.8451 17.0784 79.5278 17.373 79.2104 17.7097V16.0261H76.6728V29.9997H79.2104V23.055H79.2499C79.2499 22.2133 79.3296 21.5398 79.5278 20.9505C79.6865 20.3613 79.9241 19.8983 80.2415 19.5616C80.5589 19.2249 80.9151 18.9724 81.3121 18.804C81.7085 18.6357 82.1444 18.5515 82.6205 18.5515C83.3342 18.5515 83.8893 18.7198 84.3252 19.0145C84.7617 19.3091 85.0784 19.7299 85.3563 20.193C85.594 20.698 85.7527 21.2031 85.8317 21.7923C85.9114 22.3816 85.9509 22.9287 85.9509 23.4759V29.9997H88.528V22.55C88.449 22.1291 88.4095 21.624 88.3298 21.0768ZM152.41 21.0768C152.331 20.5297 152.212 19.9404 152.014 19.3512C151.816 18.7619 151.498 18.2148 151.141 17.7097C150.745 17.2046 150.27 16.7837 149.635 16.4892C149.001 16.1945 148.248 16.0261 147.336 16.0261C146.146 16.0261 145.155 16.2787 144.322 16.8259C143.926 17.0784 143.608 17.373 143.291 17.7097V16.0261H140.753V29.9997H143.291V23.055H143.331C143.331 22.2133 143.41 21.5398 143.608 20.9505C143.767 20.3613 144.005 19.8983 144.322 19.5616C144.639 19.2249 144.996 18.9724 145.393 18.804C145.789 18.6357 146.225 18.5515 146.701 18.5515C147.415 18.5515 147.97 18.7198 148.406 19.0145C148.842 19.3091 149.16 19.7299 149.397 20.193C149.635 20.698 149.794 21.2031 149.873 21.7923C149.952 22.3816 149.992 22.9287 149.992 23.4759V29.9997H152.569V22.55C152.529 22.1291 152.49 21.624 152.41 21.0768ZM102.256 23.6864H103.525C103.604 22.0869 103.445 20.7401 102.97 19.5616C102.494 18.4252 101.78 17.4993 100.868 16.91C99.9169 16.2787 98.7672 15.9841 97.4589 15.9841C96.1901 15.9841 95.0398 16.2787 94.0883 16.8679C93.1369 17.4572 92.3836 18.2568 91.8286 19.3512C91.2735 20.4034 91.0351 21.6661 91.0351 23.0971C91.0351 24.4439 91.313 25.6645 91.8681 26.7168C92.4231 27.769 93.1764 28.5686 94.168 29.1158C95.159 29.705 96.3086 29.9997 97.6169 29.9997C98.8857 29.9997 100.036 29.663 101.107 29.0316C102.137 28.4003 102.931 27.4744 103.445 26.2958L100.948 25.4962C100.631 26.1696 100.155 26.7168 99.5995 27.0535C99.0049 27.4322 98.3307 27.6006 97.5379 27.6006C96.3086 27.6006 95.3966 27.2218 94.7626 26.4221C94.247 25.7487 93.9296 24.8648 93.8506 23.7705H101.107H102.256V23.6864ZM94.6434 19.4774C95.2782 18.6777 96.2296 18.2568 97.4984 18.2568C98.648 18.2568 99.5205 18.6357 100.076 19.3512C100.472 19.8563 100.75 20.6138 100.868 21.5398H93.771C93.9296 20.698 94.247 20.0246 94.6434 19.4774ZM117.025 29.9576C115.676 29.9576 114.527 29.663 113.575 29.0316C112.623 28.4424 111.909 27.6006 111.394 26.5484C110.879 25.4962 110.641 24.2756 110.641 22.9708C110.641 21.624 110.918 20.4034 111.434 19.3512C111.949 18.299 112.663 17.4572 113.615 16.8679C114.566 16.2787 115.716 15.9841 117.025 15.9841C118.452 15.9841 119.681 16.3628 120.712 17.0784C121.742 17.7939 122.417 18.804 122.734 20.0246L120.196 20.7401C119.959 19.9825 119.522 19.4354 118.967 19.0145C118.412 18.5936 117.739 18.3831 116.985 18.3831C116.152 18.3831 115.478 18.5936 114.923 18.9724C114.368 19.3512 113.972 19.8983 113.734 20.6138C113.456 21.2872 113.337 22.0869 113.337 22.9708C113.337 24.3176 113.654 25.454 114.289 26.2958C114.883 27.1377 115.795 27.5585 117.025 27.5585C117.857 27.5585 118.492 27.348 119.007 26.9693C119.522 26.5905 119.919 26.0433 120.157 25.3278L122.734 25.9591C122.298 27.2639 121.584 28.2319 120.593 28.9475C119.641 29.6209 118.412 29.9576 117.025 29.9576ZM131.744 29.9576C130.435 29.9576 129.285 29.663 128.334 29.0737C127.382 28.4844 126.629 27.6427 126.114 26.5905C125.598 25.5382 125.32 24.3176 125.32 22.9708C125.32 21.5819 125.598 20.3613 126.114 19.3091C126.669 18.2568 127.382 17.4572 128.373 16.8679C129.325 16.2787 130.475 15.9841 131.744 15.9841C133.052 15.9841 134.202 16.2787 135.153 16.8679C136.106 17.4572 136.859 18.299 137.414 19.3512C137.929 20.4034 138.207 21.624 138.207 22.9708C138.207 24.3598 137.929 25.5804 137.414 26.6326C136.898 27.6848 136.145 28.4845 135.153 29.1158C134.162 29.663 133.052 29.9576 131.744 29.9576ZM131.744 27.5585C133.013 27.5585 133.925 27.1377 134.559 26.2958C135.194 25.454 135.51 24.3598 135.51 22.9708C135.51 21.5819 135.194 20.4876 134.559 19.6458C133.925 18.804 133.013 18.3831 131.744 18.3831C130.872 18.3831 130.197 18.5936 129.642 18.9724C129.087 19.3512 128.691 19.8983 128.413 20.5718C128.136 21.2452 128.017 22.0449 128.017 22.9287C128.017 24.3176 128.334 25.412 128.968 26.2538C129.563 27.1377 130.515 27.5585 131.744 27.5585ZM160.786 29.9576C159.2 29.9576 157.892 29.6209 156.86 28.9053C155.87 28.1899 155.235 27.1797 154.997 25.9171L157.614 25.4962C157.772 26.1696 158.169 26.7168 158.724 27.1377C159.319 27.5164 160.033 27.7269 160.905 27.7269C161.698 27.7269 162.332 27.5585 162.769 27.2218C163.205 26.8851 163.442 26.4642 163.442 25.8749C163.442 25.5382 163.363 25.2857 163.205 25.0753C163.046 24.8648 162.729 24.6544 162.214 24.486C161.698 24.3176 160.945 24.0651 159.914 23.7705C158.804 23.4759 157.892 23.1392 157.217 22.8025C156.543 22.4658 156.068 22.0449 155.79 21.624C155.513 21.161 155.354 20.6138 155.354 19.9825C155.354 19.1829 155.552 18.4673 155.988 17.8781C156.425 17.2888 157.019 16.8259 157.772 16.4892C158.526 16.1524 159.438 15.9841 160.469 15.9841C161.46 15.9841 162.372 16.1524 163.165 16.447C163.958 16.7837 164.593 17.2046 165.068 17.7939C165.544 18.3831 165.861 19.0565 165.94 19.8563L163.324 20.3192C163.244 19.6879 162.927 19.1828 162.451 18.804C161.936 18.4252 161.302 18.2148 160.508 18.2148C159.755 18.1727 159.121 18.299 158.645 18.5936C158.169 18.8882 157.931 19.267 157.931 19.7721C157.931 20.0667 158.01 20.3192 158.209 20.5297C158.407 20.7401 158.764 20.9505 159.279 21.1189C159.794 21.2872 160.588 21.5398 161.618 21.7923C162.729 22.0869 163.601 22.3816 164.236 22.7603C164.87 23.0971 165.346 23.518 165.623 23.9809C165.901 24.4439 166.06 25.0332 166.06 25.7066C166.06 27.0113 165.584 28.0636 164.632 28.7791C163.76 29.5788 162.451 29.9576 160.786 29.9576Z" fill="white"/>
</svg>
