<svg width="35" height="35" viewBox="0 0 35 35" fill="none" xmlns="http://www.w3.org/2000/svg">
<path d="M4.04687 15.5859C4.21093 15.5859 4.375 15.5859 4.48437 15.5313L10.5547 13.3984C11.0469 13.2344 11.3203 12.6875 11.1562 12.1953C10.9922 11.7031 10.4453 11.4297 9.95312 11.5938L6.28906 12.9063C8.09375 7.92969 12.8516 4.53906 18.375 4.53906C24.2266 4.53906 29.3672 8.42188 30.7891 14.0547C30.8984 14.5469 31.4453 14.875 31.9375 14.7656C32.4297 14.6563 32.7578 14.1094 32.6484 13.6172C31.0078 7.16406 25.1016 2.67969 18.375 2.67969C11.8125 2.67969 6.125 6.89063 4.26562 13.0156L2.57031 8.25781C2.40625 7.76563 1.85937 7.49219 1.36719 7.65625C0.874998 7.82031 0.60156 8.36719 0.765623 8.85938L2.84375 14.8203C3.00781 15.2578 3.55468 15.5859 4.04687 15.5859Z" fill="white"/>
<path d="M34.2344 27.2891L31.9922 21.3828C31.8828 21.0547 31.6094 20.7813 31.2812 20.6719C30.9531 20.5625 30.625 20.5078 30.2969 20.6719L24.2812 22.9688C23.7891 23.1328 23.5156 23.7344 23.7344 24.2266C23.8984 24.7188 24.5 24.9922 24.9922 24.7735L28.7109 23.3516C26.6328 27.6719 22.2031 30.5157 17.1719 30.5157C11.6484 30.5157 6.78125 27.0703 5.08593 21.9297C4.86718 21.4375 4.32031 21.1641 3.82812 21.3282C3.33594 21.4922 3.0625 22.0391 3.22656 22.5313C5.19531 28.4375 10.7734 32.4297 17.1172 32.4297C23.1328 32.4297 28.4922 28.875 30.6797 23.461L32.4297 28C32.5937 28.3828 32.9219 28.6016 33.3047 28.6016C33.4141 28.6016 33.5234 28.6016 33.6328 28.5469C34.1797 28.3282 34.4531 27.7813 34.2344 27.2891Z" fill="white"/>
</svg>
