<svg width="39" height="22" viewBox="0 0 39 22" fill="none" xmlns="http://www.w3.org/2000/svg">
<path d="M28.1124 4.29813L28.1125 4.29821L28.1568 4.34054C29.2959 5.42795 30.4434 6.52342 32.0611 6.90326C34.1679 7.3988 36.0817 6.95501 37.7714 5.61818C37.0885 7.07389 36.1576 8.18812 34.9872 8.98112C33.511 9.98134 31.6101 10.5 29.2502 10.5C26.9127 10.5 25.2336 9.99094 23.9139 9.27655C22.584 8.55668 21.597 7.61817 20.6374 6.70262C20.6374 6.70256 20.6373 6.70251 20.6373 6.70245L20.5949 6.66203C19.4552 5.57324 18.3073 4.47673 16.6893 4.09671C14.5824 3.60171 12.6685 4.04578 10.9784 5.38293C11.6614 3.92672 12.5924 2.81219 13.7629 2.01903C15.2391 1.01869 17.14 0.5 19.5004 0.5C21.8379 0.5 23.5168 1.00889 24.8363 1.72326C26.166 2.44313 27.1529 3.38187 28.1124 4.29813ZM22.3105 17.904L22.3107 17.904C24.4178 18.399 26.3318 17.9549 28.022 16.6175C27.3391 18.0737 26.4081 19.1881 25.2376 19.9812C23.7614 20.9814 21.8605 21.5 19.5004 21.5C17.1625 21.5 15.4834 20.9909 14.1638 20.2766C12.834 19.5567 11.8472 18.6182 10.8876 17.7026C10.8876 17.7026 10.8875 17.7025 10.8875 17.7025L10.8452 17.6621C9.70535 16.5732 8.55744 15.4767 6.93868 15.0967C4.83213 14.6017 2.91825 15.0459 1.22817 16.3832C1.91103 14.9269 2.84205 13.8123 4.01259 13.0191C5.48884 12.0187 7.38975 11.5 9.74981 11.5C12.0872 11.5 13.7663 12.0092 15.0861 12.7238C16.416 13.4439 17.4031 14.3826 18.3627 15.2982C18.3627 15.2982 18.3627 15.2982 18.3627 15.2983L18.407 15.3405C19.5461 16.428 20.6936 17.5234 22.3105 17.904Z" stroke="white"/>
</svg>
