<svg width="18" height="18" viewBox="0 0 18 18" fill="none" xmlns="http://www.w3.org/2000/svg">
<g clip-path="url(#clip0_121_46479)">
<path d="M4.35869 17.634C4.13369 17.634 3.90869 17.5777 3.71181 17.4371C3.34619 17.184 3.14931 16.734 3.23369 16.284L3.99306 11.5027L0.702437 8.09961C0.393062 7.79024 0.280562 7.31211 0.421187 6.89024C0.561812 6.46836 0.899312 6.18711 1.32119 6.10274L5.90556 5.37149L7.95869 1.01211C8.15556 0.618359 8.54931 0.365234 8.97119 0.365234C9.42119 0.365234 9.78681 0.618359 9.98369 1.01211L12.0931 5.34336L16.6774 6.07461C17.0993 6.13086 17.4368 6.44024 17.5774 6.86211C17.7181 7.28399 17.6056 7.76211 17.2962 8.07149L13.9774 11.4746L14.7649 16.284C14.8493 16.734 14.6524 17.184 14.2868 17.4371C13.9493 17.6902 13.4993 17.7184 13.1056 17.5215L8.99931 15.2715L4.89306 17.5215C4.72431 17.6059 4.55556 17.634 4.35869 17.634ZM1.40556 7.42461L4.80869 10.9121C4.97744 11.0809 5.06181 11.334 5.00556 11.5871L4.21806 16.4527C4.18994 16.5652 4.27431 16.6215 4.30244 16.6496C4.35869 16.7059 4.41494 16.6777 4.44306 16.6496L8.66181 14.3434C8.88681 14.2309 9.13994 14.2309 9.36494 14.3434L13.5837 16.6215C13.6118 16.6215 13.6399 16.6496 13.7243 16.6215C13.7524 16.5934 13.8087 16.5371 13.8087 16.4246L13.0212 11.5309C12.9931 11.2777 13.0493 11.0527 13.2181 10.8559L16.5931 7.36836C16.6774 7.28399 16.6493 7.19961 16.6493 7.14336C16.6493 7.11524 16.5931 7.03086 16.5368 7.03086L11.8118 6.29961C11.5587 6.27149 11.3618 6.10274 11.2493 5.87774L9.13994 1.43398C9.11181 1.34961 9.05556 1.34961 8.99931 1.34961C8.97119 1.34961 8.91494 1.37773 8.85869 1.43398L6.74931 5.90586C6.63681 6.13086 6.43994 6.29961 6.18681 6.32774L1.48994 7.08711C1.40556 7.08711 1.37744 7.17149 1.37744 7.19961C1.34931 7.22774 1.32119 7.34024 1.40556 7.42461Z" fill="#3056D3"/>
</g>
<defs>
<clipPath id="clip0_121_46479">
<rect width="18" height="18" fill="white"/>
</clipPath>
</defs>
</svg>
