<svg width="65" height="14" viewBox="0 0 65 14" fill="none" xmlns="http://www.w3.org/2000/svg">
<path d="M12.978 0.364L8.496 13H4.644L0.162 0.364H3.438L6.57 9.904L9.72 0.364H12.978ZM17.3424 2.83V5.386H21.4644V7.762H17.3424V10.534H22.0044V13H14.2644V0.364H22.0044V2.83H17.3424ZM35.3067 13H32.2287L27.0807 5.206V13H24.0027V0.364H27.0807L32.2287 8.194V0.364H35.3067V13ZM37.0159 6.664C37.0159 5.416 37.2859 4.306 37.8259 3.334C38.3659 2.35 39.1159 1.588 40.0759 1.048C41.0479 0.495999 42.1459 0.219999 43.3699 0.219999C44.8699 0.219999 46.1539 0.615999 47.2219 1.408C48.2899 2.2 49.0039 3.28 49.3639 4.648H45.9799C45.7279 4.12 45.3679 3.718 44.8999 3.442C44.4439 3.166 43.9219 3.028 43.3339 3.028C42.3859 3.028 41.6179 3.358 41.0299 4.018C40.4419 4.678 40.1479 5.56 40.1479 6.664C40.1479 7.768 40.4419 8.65 41.0299 9.31C41.6179 9.97 42.3859 10.3 43.3339 10.3C43.9219 10.3 44.4439 10.162 44.8999 9.886C45.3679 9.61 45.7279 9.208 45.9799 8.68H49.3639C49.0039 10.048 48.2899 11.128 47.2219 11.92C46.1539 12.7 44.8699 13.09 43.3699 13.09C42.1459 13.09 41.0479 12.82 40.0759 12.28C39.1159 11.728 38.3659 10.966 37.8259 9.994C37.2859 9.022 37.0159 7.912 37.0159 6.664ZM54.3268 2.83V5.386H58.4488V7.762H54.3268V10.534H58.9888V13H51.2488V0.364H58.9888V2.83H54.3268Z" fill="#495057"/>
<path d="M62.4271 13.144C61.8871 13.144 61.4431 12.988 61.0951 12.676C60.7591 12.352 60.5911 11.956 60.5911 11.488C60.5911 11.008 60.7591 10.606 61.0951 10.282C61.4431 9.958 61.8871 9.796 62.4271 9.796C62.9551 9.796 63.3871 9.958 63.7231 10.282C64.0711 10.606 64.2451 11.008 64.2451 11.488C64.2451 11.956 64.0711 12.352 63.7231 12.676C63.3871 12.988 62.9551 13.144 62.4271 13.144Z" fill="#DDBEA9"/>
</svg>
