<svg width="50" height="50" viewBox="0 0 50 50" fill="none" xmlns="http://www.w3.org/2000/svg">
<circle cx="47.7119" cy="47.9619" r="1.74121" transform="rotate(180 47.7119 47.9619)" fill="white"/>
<circle cx="47.7119" cy="32.6387" r="1.74121" transform="rotate(180 47.7119 32.6387)" fill="white"/>
<circle cx="47.7119" cy="17.3164" r="1.74121" transform="rotate(180 47.7119 17.3164)" fill="white"/>
<circle cx="47.7119" cy="2.34277" r="1.74121" transform="rotate(180 47.7119 2.34277)" fill="white"/>
<circle cx="32.3896" cy="47.9619" r="1.74121" transform="rotate(180 32.3896 47.9619)" fill="white"/>
<circle cx="32.3896" cy="32.6387" r="1.74121" transform="rotate(180 32.3896 32.6387)" fill="white"/>
<circle cx="32.3896" cy="17.3164" r="1.74121" transform="rotate(180 32.3896 17.3164)" fill="white"/>
<circle cx="32.3896" cy="2.34277" r="1.74121" transform="rotate(180 32.3896 2.34277)" fill="white"/>
<circle cx="17.0674" cy="47.9619" r="1.74121" transform="rotate(180 17.0674 47.9619)" fill="white"/>
<circle cx="17.0674" cy="32.6387" r="1.74121" transform="rotate(180 17.0674 32.6387)" fill="white"/>
<circle cx="17.0674" cy="17.3164" r="1.74121" transform="rotate(180 17.0674 17.3164)" fill="white"/>
<circle cx="17.0674" cy="2.3418" r="1.74121" transform="rotate(180 17.0674 2.3418)" fill="white"/>
<circle cx="1.74316" cy="47.9619" r="1.74121" transform="rotate(180 1.74316 47.9619)" fill="white"/>
<circle cx="1.74316" cy="32.6387" r="1.74121" transform="rotate(180 1.74316 32.6387)" fill="white"/>
<circle cx="1.74316" cy="17.3164" r="1.74121" transform="rotate(180 1.74316 17.3164)" fill="white"/>
<circle cx="1.74316" cy="2.34277" r="1.74121" transform="rotate(180 1.74316 2.34277)" fill="white"/>
</svg>
