<svg width="20" height="25" viewBox="0 0 20 25" fill="none" xmlns="http://www.w3.org/2000/svg">
<circle cx="0.706257" cy="24.3533" r="0.646687" transform="rotate(-90 0.706257 24.3533)" fill="#3056D3"/>
<circle cx="6.39687" cy="24.3533" r="0.646687" transform="rotate(-90 6.39687 24.3533)" fill="#3056D3"/>
<circle cx="12.0881" cy="24.3533" r="0.646687" transform="rotate(-90 12.0881 24.3533)" fill="#3056D3"/>
<circle cx="17.7787" cy="24.3533" r="0.646687" transform="rotate(-90 17.7787 24.3533)" fill="#3056D3"/>
<circle cx="0.706257" cy="18.6624" r="0.646687" transform="rotate(-90 0.706257 18.6624)" fill="#3056D3"/>
<circle cx="6.39687" cy="18.6624" r="0.646687" transform="rotate(-90 6.39687 18.6624)" fill="#3056D3"/>
<circle cx="12.0881" cy="18.6624" r="0.646687" transform="rotate(-90 12.0881 18.6624)" fill="#3056D3"/>
<circle cx="17.7787" cy="18.6624" r="0.646687" transform="rotate(-90 17.7787 18.6624)" fill="#3056D3"/>
<circle cx="0.706257" cy="12.9715" r="0.646687" transform="rotate(-90 0.706257 12.9715)" fill="#3056D3"/>
<circle cx="6.39687" cy="12.9715" r="0.646687" transform="rotate(-90 6.39687 12.9715)" fill="#3056D3"/>
<circle cx="12.0881" cy="12.9715" r="0.646687" transform="rotate(-90 12.0881 12.9715)" fill="#3056D3"/>
<circle cx="17.7787" cy="12.9715" r="0.646687" transform="rotate(-90 17.7787 12.9715)" fill="#3056D3"/>
<circle cx="0.706257" cy="7.28056" r="0.646687" transform="rotate(-90 0.706257 7.28056)" fill="#3056D3"/>
<circle cx="6.39687" cy="7.28056" r="0.646687" transform="rotate(-90 6.39687 7.28056)" fill="#3056D3"/>
<circle cx="12.0881" cy="7.28056" r="0.646687" transform="rotate(-90 12.0881 7.28056)" fill="#3056D3"/>
<circle cx="17.7787" cy="7.28056" r="0.646687" transform="rotate(-90 17.7787 7.28056)" fill="#3056D3"/>
<circle cx="0.706257" cy="1.58964" r="0.646687" transform="rotate(-90 0.706257 1.58964)" fill="#3056D3"/>
<circle cx="6.39687" cy="1.58964" r="0.646687" transform="rotate(-90 6.39687 1.58964)" fill="#3056D3"/>
<circle cx="12.0881" cy="1.58964" r="0.646687" transform="rotate(-90 12.0881 1.58964)" fill="#3056D3"/>
<circle cx="17.7787" cy="1.58964" r="0.646687" transform="rotate(-90 17.7787 1.58964)" fill="#3056D3"/>
</svg>
