<svg width="77" height="77" viewBox="0 0 77 77" fill="none" xmlns="http://www.w3.org/2000/svg">
<circle cx="1.66343" cy="74.5221" r="1.66343" transform="rotate(-90 1.66343 74.5221)" fill="#13C296"/>
<circle cx="1.66343" cy="30.9401" r="1.66343" transform="rotate(-90 1.66343 30.9401)" fill="#13C296"/>
<circle cx="16.3016" cy="74.5221" r="1.66343" transform="rotate(-90 16.3016 74.5221)" fill="#13C296"/>
<circle cx="16.3016" cy="30.9401" r="1.66343" transform="rotate(-90 16.3016 30.9401)" fill="#13C296"/>
<circle cx="30.9398" cy="74.5221" r="1.66343" transform="rotate(-90 30.9398 74.5221)" fill="#13C296"/>
<circle cx="30.9398" cy="30.9401" r="1.66343" transform="rotate(-90 30.9398 30.9401)" fill="#13C296"/>
<circle cx="45.578" cy="74.5221" r="1.66343" transform="rotate(-90 45.578 74.5221)" fill="#13C296"/>
<circle cx="45.578" cy="30.9401" r="1.66343" transform="rotate(-90 45.578 30.9401)" fill="#13C296"/>
<circle cx="60.2162" cy="74.5211" r="1.66343" transform="rotate(-90 60.2162 74.5211)" fill="#13C296"/>
<circle cx="74.6634" cy="74.5221" r="1.66343" transform="rotate(-90 74.6634 74.5221)" fill="#13C296"/>
<circle cx="60.2162" cy="30.9401" r="1.66343" transform="rotate(-90 60.2162 30.9401)" fill="#13C296"/>
<circle cx="74.6634" cy="30.9401" r="1.66343" transform="rotate(-90 74.6634 30.9401)" fill="#13C296"/>
<circle cx="1.66343" cy="59.8834" r="1.66343" transform="rotate(-90 1.66343 59.8834)" fill="#13C296"/>
<circle cx="1.66343" cy="16.3014" r="1.66343" transform="rotate(-90 1.66343 16.3014)" fill="#13C296"/>
<circle cx="16.3016" cy="59.8834" r="1.66343" transform="rotate(-90 16.3016 59.8834)" fill="#13C296"/>
<circle cx="16.3016" cy="16.3014" r="1.66343" transform="rotate(-90 16.3016 16.3014)" fill="#13C296"/>
<circle cx="30.9398" cy="59.8834" r="1.66343" transform="rotate(-90 30.9398 59.8834)" fill="#13C296"/>
<circle cx="30.9398" cy="16.3014" r="1.66343" transform="rotate(-90 30.9398 16.3014)" fill="#13C296"/>
<circle cx="45.578" cy="59.8834" r="1.66343" transform="rotate(-90 45.578 59.8834)" fill="#13C296"/>
<circle cx="45.578" cy="16.3014" r="1.66343" transform="rotate(-90 45.578 16.3014)" fill="#13C296"/>
<circle cx="60.2162" cy="59.8844" r="1.66343" transform="rotate(-90 60.2162 59.8844)" fill="#13C296"/>
<circle cx="74.6634" cy="59.8834" r="1.66343" transform="rotate(-90 74.6634 59.8834)" fill="#13C296"/>
<circle cx="60.2162" cy="16.3014" r="1.66343" transform="rotate(-90 60.2162 16.3014)" fill="#13C296"/>
<circle cx="74.6634" cy="16.3014" r="1.66343" transform="rotate(-90 74.6634 16.3014)" fill="#13C296"/>
<circle cx="1.66343" cy="45.2457" r="1.66343" transform="rotate(-90 1.66343 45.2457)" fill="#13C296"/>
<circle cx="1.66343" cy="1.66371" r="1.66343" transform="rotate(-90 1.66343 1.66371)" fill="#13C296"/>
<circle cx="16.3016" cy="45.2457" r="1.66343" transform="rotate(-90 16.3016 45.2457)" fill="#13C296"/>
<circle cx="16.3016" cy="1.66371" r="1.66343" transform="rotate(-90 16.3016 1.66371)" fill="#13C296"/>
<circle cx="30.9398" cy="45.2457" r="1.66343" transform="rotate(-90 30.9398 45.2457)" fill="#13C296"/>
<circle cx="30.9398" cy="1.66371" r="1.66343" transform="rotate(-90 30.9398 1.66371)" fill="#13C296"/>
<circle cx="45.578" cy="45.2457" r="1.66343" transform="rotate(-90 45.578 45.2457)" fill="#13C296"/>
<circle cx="45.578" cy="1.66371" r="1.66343" transform="rotate(-90 45.578 1.66371)" fill="#13C296"/>
<circle cx="60.2162" cy="45.2457" r="1.66343" transform="rotate(-90 60.2162 45.2457)" fill="#13C296"/>
<circle cx="74.6634" cy="45.2457" r="1.66343" transform="rotate(-90 74.6634 45.2457)" fill="#13C296"/>
<circle cx="60.2162" cy="1.66371" r="1.66343" transform="rotate(-90 60.2162 1.66371)" fill="#13C296"/>
<circle cx="74.6634" cy="1.66371" r="1.66343" transform="rotate(-90 74.6634 1.66371)" fill="#13C296"/>
</svg>
