<svg width="16" height="16" viewBox="0 0 16 16" fill="none" xmlns="http://www.w3.org/2000/svg">
<path d="M3.87499 15.6752C3.67499 15.6752 3.47499 15.6252 3.29999 15.5002C2.97499 15.2752 2.79999 14.8752 2.87499 14.4752L3.54999 10.2252L0.624985 7.2002C0.349985 6.9252 0.249985 6.5002 0.374985 6.1252C0.499985 5.7502 0.799985 5.5002 1.17499 5.4252L5.24999 4.7752L7.07499 0.900195C7.24999 0.550195 7.59999 0.325195 7.97499 0.325195C8.37499 0.325195 8.69999 0.550195 8.87499 0.900195L10.75 4.7502L14.825 5.4002C15.2 5.4502 15.5 5.7252 15.625 6.1002C15.75 6.4752 15.65 6.9002 15.375 7.1752L12.425 10.2002L13.125 14.4752C13.2 14.8752 13.025 15.2752 12.7 15.5002C12.4 15.7252 12 15.7502 11.65 15.5752L7.99999 13.5752L4.34999 15.5752C4.19999 15.6502 4.04999 15.6752 3.87499 15.6752ZM1.24999 6.6002L4.27499 9.7002C4.42499 9.8502 4.49999 10.0752 4.44999 10.3002L3.74999 14.6252C3.72499 14.7252 3.79999 14.7752 3.82499 14.8002C3.87499 14.8502 3.92499 14.8252 3.94999 14.8002L7.69999 12.7502C7.89999 12.6502 8.12499 12.6502 8.32499 12.7502L12.075 14.7752C12.1 14.7752 12.125 14.8002 12.2 14.7752C12.225 14.7502 12.275 14.7002 12.275 14.6002L11.575 10.2502C11.55 10.0252 11.6 9.8252 11.75 9.6502L14.75 6.5502C14.825 6.4752 14.8 6.4002 14.8 6.3502C14.8 6.3252 14.75 6.2502 14.7 6.2502L10.5 5.6002C10.275 5.5752 10.1 5.4252 9.99999 5.2252L8.12499 1.2752C8.09999 1.2002 8.04999 1.2002 7.99999 1.2002C7.97499 1.2002 7.92499 1.2252 7.87499 1.2752L5.99999 5.2502C5.89999 5.4502 5.72499 5.6002 5.49999 5.6252L1.32499 6.3002C1.24999 6.3002 1.22499 6.3752 1.22499 6.4002C1.19999 6.4252 1.17499 6.5252 1.24999 6.6002Z" fill="#FFA645"/>
</svg>
