<svg width="128" height="16" viewBox="0 0 128 16" fill="none" xmlns="http://www.w3.org/2000/svg">
<path d="M12.978 2.364L8.496 15H4.644L0.162 2.364H3.438L6.57 11.904L9.72 2.364H12.978ZM17.3424 4.83V7.386H21.4644V9.762H17.3424V12.534H22.0044V15H14.2644V2.364H22.0044V4.83H17.3424ZM35.3067 15H32.2287L27.0807 7.206V15H24.0027V2.364H27.0807L32.2287 10.194V2.364H35.3067V15ZM37.0159 8.664C37.0159 7.416 37.2859 6.306 37.8259 5.334C38.3659 4.35 39.1159 3.588 40.0759 3.048C41.0479 2.496 42.1459 2.22 43.3699 2.22C44.8699 2.22 46.1539 2.616 47.2219 3.408C48.2899 4.2 49.0039 5.28 49.3639 6.648H45.9799C45.7279 6.12 45.3679 5.718 44.8999 5.442C44.4439 5.166 43.9219 5.028 43.3339 5.028C42.3859 5.028 41.6179 5.358 41.0299 6.018C40.4419 6.678 40.1479 7.56 40.1479 8.664C40.1479 9.768 40.4419 10.65 41.0299 11.31C41.6179 11.97 42.3859 12.3 43.3339 12.3C43.9219 12.3 44.4439 12.162 44.8999 11.886C45.3679 11.61 45.7279 11.208 45.9799 10.68H49.3639C49.0039 12.048 48.2899 13.128 47.2219 13.92C46.1539 14.7 44.8699 15.09 43.3699 15.09C42.1459 15.09 41.0479 14.82 40.0759 14.28C39.1159 13.728 38.3659 12.966 37.8259 11.994C37.2859 11.022 37.0159 9.912 37.0159 8.664ZM54.3268 4.83V7.386H58.4488V9.762H54.3268V12.534H58.9888V15H51.2488V2.364H58.9888V4.83H54.3268ZM69.3735 15.126C68.4495 15.126 67.6215 14.976 66.8895 14.676C66.1575 14.376 65.5695 13.932 65.1255 13.344C64.6935 12.756 64.4655 12.048 64.4415 11.22H67.7175C67.7655 11.688 67.9275 12.048 68.2035 12.3C68.4795 12.54 68.8395 12.66 69.2835 12.66C69.7395 12.66 70.0995 12.558 70.3635 12.354C70.6275 12.138 70.7595 11.844 70.7595 11.472C70.7595 11.16 70.6515 10.902 70.4355 10.698C70.2315 10.494 69.9735 10.326 69.6615 10.194C69.3615 10.062 68.9295 9.912 68.3655 9.744C67.5495 9.492 66.8835 9.24 66.3675 8.988C65.8515 8.736 65.4075 8.364 65.0355 7.872C64.6635 7.38 64.4775 6.738 64.4775 5.946C64.4775 4.77 64.9035 3.852 65.7555 3.192C66.6075 2.52 67.7175 2.184 69.0855 2.184C70.4775 2.184 71.5995 2.52 72.4515 3.192C73.3035 3.852 73.7595 4.776 73.8195 5.964H70.4895C70.4655 5.556 70.3155 5.238 70.0395 5.01C69.7635 4.77 69.4095 4.65 68.9775 4.65C68.6055 4.65 68.3055 4.752 68.0775 4.956C67.8495 5.148 67.7355 5.43 67.7355 5.802C67.7355 6.21 67.9275 6.528 68.3115 6.756C68.6955 6.984 69.2955 7.23 70.1115 7.494C70.9275 7.77 71.5875 8.034 72.0915 8.286C72.6075 8.538 73.0515 8.904 73.4235 9.384C73.7955 9.864 73.9815 10.482 73.9815 11.238C73.9815 11.958 73.7955 12.612 73.4235 13.2C73.0635 13.788 72.5355 14.256 71.8395 14.604C71.1435 14.952 70.3215 15.126 69.3735 15.126ZM81.4738 12.39V15H79.9078C78.7918 15 77.9218 14.73 77.2978 14.19C76.6738 13.638 76.3618 12.744 76.3618 11.508V7.512H75.1378V4.956H76.3618V2.508H79.4398V4.956H81.4558V7.512H79.4398V11.544C79.4398 11.844 79.5118 12.06 79.6558 12.192C79.7998 12.324 80.0398 12.39 80.3758 12.39H81.4738ZM93.1063 4.956V15H90.0283V13.632C89.7163 14.076 89.2903 14.436 88.7503 14.712C88.2223 14.976 87.6343 15.108 86.9863 15.108C86.2183 15.108 85.5403 14.94 84.9523 14.604C84.3643 14.256 83.9083 13.758 83.5843 13.11C83.2603 12.462 83.0983 11.7 83.0983 10.824V4.956H86.1583V10.41C86.1583 11.082 86.3323 11.604 86.6803 11.976C87.0283 12.348 87.4963 12.534 88.0843 12.534C88.6843 12.534 89.1583 12.348 89.5063 11.976C89.8543 11.604 90.0283 11.082 90.0283 10.41V4.956H93.1063ZM94.7052 9.96C94.7052 8.928 94.8972 8.022 95.2812 7.242C95.6772 6.462 96.2112 5.862 96.8832 5.442C97.5552 5.022 98.3052 4.812 99.1332 4.812C99.7932 4.812 100.393 4.95 100.933 5.226C101.485 5.502 101.917 5.874 102.229 6.342V1.68H105.307V15H102.229V13.56C101.941 14.04 101.527 14.424 100.987 14.712C100.459 15 99.8412 15.144 99.1332 15.144C98.3052 15.144 97.5552 14.934 96.8832 14.514C96.2112 14.082 95.6772 13.476 95.2812 12.696C94.8972 11.904 94.7052 10.992 94.7052 9.96ZM102.229 9.978C102.229 9.21 102.013 8.604 101.581 8.16C101.161 7.716 100.645 7.494 100.033 7.494C99.4212 7.494 98.8992 7.716 98.4672 8.16C98.0472 8.592 97.8372 9.192 97.8372 9.96C97.8372 10.728 98.0472 11.34 98.4672 11.796C98.8992 12.24 99.4212 12.462 100.033 12.462C100.645 12.462 101.161 12.24 101.581 11.796C102.013 11.352 102.229 10.746 102.229 9.978ZM109.082 3.912C108.542 3.912 108.098 3.756 107.75 3.444C107.414 3.12 107.246 2.724 107.246 2.256C107.246 1.776 107.414 1.38 107.75 1.068C108.098 0.743999 108.542 0.581999 109.082 0.581999C109.61 0.581999 110.042 0.743999 110.378 1.068C110.726 1.38 110.9 1.776 110.9 2.256C110.9 2.724 110.726 3.12 110.378 3.444C110.042 3.756 109.61 3.912 109.082 3.912ZM110.612 4.956V15H107.534V4.956H110.612ZM117.415 15.144C116.431 15.144 115.543 14.934 114.751 14.514C113.971 14.094 113.353 13.494 112.897 12.714C112.453 11.934 112.231 11.022 112.231 9.978C112.231 8.946 112.459 8.04 112.915 7.26C113.371 6.468 113.995 5.862 114.787 5.442C115.579 5.022 116.467 4.812 117.451 4.812C118.435 4.812 119.323 5.022 120.115 5.442C120.907 5.862 121.531 6.468 121.987 7.26C122.443 8.04 122.671 8.946 122.671 9.978C122.671 11.01 122.437 11.922 121.969 12.714C121.513 13.494 120.883 14.094 120.079 14.514C119.287 14.934 118.399 15.144 117.415 15.144ZM117.415 12.48C118.003 12.48 118.501 12.264 118.909 11.832C119.329 11.4 119.539 10.782 119.539 9.978C119.539 9.174 119.335 8.556 118.927 8.124C118.531 7.692 118.039 7.476 117.451 7.476C116.851 7.476 116.353 7.692 115.957 8.124C115.561 8.544 115.363 9.162 115.363 9.978C115.363 10.782 115.555 11.4 115.939 11.832C116.335 12.264 116.827 12.48 117.415 12.48Z" fill="#F8F9FA"/>
<path d="M125.744 15.144C125.204 15.144 124.76 14.988 124.412 14.676C124.076 14.352 123.908 13.956 123.908 13.488C123.908 13.008 124.076 12.606 124.412 12.282C124.76 11.958 125.204 11.796 125.744 11.796C126.272 11.796 126.704 11.958 127.04 12.282C127.388 12.606 127.562 13.008 127.562 13.488C127.562 13.956 127.388 14.352 127.04 14.676C126.704 14.988 126.272 15.144 125.744 15.144Z" fill="#DDBEA9"/>
</svg>
