<svg width="20" height="20" viewBox="0 0 20 20" fill="none" xmlns="http://www.w3.org/2000/svg">
<path d="M10 0.40625C4.6875 0.40625 0.40625 4.6875 0.40625 10C0.40625 15.3125 4.6875 19.625 10 19.625C15.3125 19.625 19.625 15.3125 19.625 10C19.625 4.6875 15.3125 0.40625 10 0.40625ZM10 18.5312C5.3125 18.5312 1.5 14.6875 1.5 10C1.5 5.3125 5.3125 1.5 10 1.5C14.6875 1.5 18.5312 5.3125 18.5312 10C18.5312 14.6875 14.6875 18.5312 10 18.5312Z" fill="#DC2626"/>
<path d="M12.875 7.125C12.6563 6.90625 12.3125 6.90625 12.0938 7.125L10 9.21875L7.90625 7.125C7.6875 6.90625 7.34375 6.90625 7.125 7.125C6.90625 7.34375 6.90625 7.6875 7.125 7.90625L9.21875 10L7.125 12.0937C6.90625 12.3125 6.90625 12.6562 7.125 12.875C7.21875 12.9687 7.375 13.0312 7.5 13.0312C7.625 13.0312 7.78125 12.9687 7.875 12.875L9.96875 10.7812L12.0625 12.875C12.1563 12.9687 12.3125 13.0312 12.4375 13.0312C12.5625 13.0312 12.7188 12.9687 12.8125 12.875C13.0313 12.6562 13.0313 12.3125 12.8125 12.0937L10.7813 10L12.875 7.90625C13.0625 7.6875 13.0625 7.34375 12.875 7.125Z" fill="#DC2626"/>
</svg>
