<svg width="18" height="18" viewBox="0 0 18 18" fill="none" xmlns="http://www.w3.org/2000/svg">
<path d="M16.7824 0.947266H1.84872C1.14297 0.947266 0.578369 1.49735 0.578369 2.18496V16.7622C0.578369 17.4223 1.14297 17.9999 1.84872 17.9999H16.7259C17.4316 17.9999 17.9962 17.4498 17.9962 16.7622V2.15745C18.0527 1.49735 17.4881 0.947266 16.7824 0.947266ZM5.74445 15.442H3.17552V7.32825H5.74445V15.442ZM4.44587 6.20058C3.59897 6.20058 2.94968 5.54047 2.94968 4.74285C2.94968 3.94523 3.6272 3.28513 4.44587 3.28513C5.26454 3.28513 5.94206 3.94523 5.94206 4.74285C5.94206 5.54047 5.321 6.20058 4.44587 6.20058ZM15.4838 15.442H12.9149V11.5089C12.9149 10.5738 12.8866 9.33606 11.5598 9.33606C10.2048 9.33606 10.0072 10.3812 10.0072 11.4264V15.442H7.43824V7.32825H9.95071V8.45592H9.97894C10.3459 7.79582 11.1646 7.13572 12.4349 7.13572C15.0603 7.13572 15.5402 8.78598 15.5402 11.0413V15.442H15.4838Z" fill="#CDCED6"/>
</svg>
