<svg width="193" height="44" viewBox="0 0 193 44" fill="none" xmlns="http://www.w3.org/2000/svg">
<path d="M54 38.2934H63.5887C69.0134 38.2934 71.6737 35.529 71.6737 31.8392C71.6737 28.2536 69.1291 26.1485 66.6076 26.0212V25.7899C68.9209 25.2463 70.7484 23.627 70.7484 20.7469C70.7484 17.2191 68.2037 14.6051 63.0682 14.6051H54V38.2934ZM58.2912 34.7077V27.7678H63.0219C65.6707 27.7678 67.3131 29.3871 67.3131 31.5038C67.3131 33.3891 66.0177 34.7077 62.9063 34.7077H58.2912ZM58.2912 24.6795V18.1444H62.6287C65.1502 18.1444 66.4572 19.4746 66.4572 21.3021C66.4572 23.3841 64.7685 24.6795 62.5361 24.6795H58.2912Z" fill="#212B36"/>
<path d="M86.5454 30.8214C86.5454 33.5279 84.6138 34.8697 82.7631 34.8697C80.7506 34.8697 79.4088 33.447 79.4088 31.1915V20.5271H75.2217V31.8392C75.2217 36.1073 77.6507 38.5247 81.1438 38.5247C83.8041 38.5247 85.6779 37.1251 86.4876 35.1357H86.6726V38.2934H90.7325V20.5271H86.5454V30.8214Z" fill="#212B36"/>
<path d="M109.08 25.2232C108.502 22.2158 106.096 20.2958 101.932 20.2958C97.6522 20.2958 94.7374 22.4009 94.749 25.6858C94.7374 28.2767 96.3336 29.9886 99.7457 30.6941L102.776 31.3303C104.407 31.6889 105.17 32.3481 105.17 33.3544C105.17 34.5689 103.852 35.4827 101.862 35.4827C99.9424 35.4827 98.6932 34.6499 98.3346 33.0537L94.2516 33.447C94.7721 36.7087 97.5134 38.6404 101.874 38.6404C106.316 38.6404 109.45 36.3386 109.462 32.9727C109.45 30.4397 107.819 28.8897 104.465 28.1611L101.434 27.5133C99.6301 27.1085 98.913 26.4839 98.9245 25.4545C98.913 24.2516 100.243 23.4188 101.99 23.4188C103.921 23.4188 104.939 24.4713 105.263 25.6395L109.08 25.2232Z" fill="#212B36"/>
<path d="M112.914 38.2934H117.101V20.5271H112.914V38.2934ZM115.019 18.0056C116.35 18.0056 117.437 16.9878 117.437 15.7386C117.437 14.4778 116.35 13.46 115.019 13.46C113.678 13.46 112.59 14.4778 112.59 15.7386C112.59 16.9878 113.678 18.0056 115.019 18.0056Z" fill="#212B36"/>
<path d="M125.594 27.8835C125.594 25.3157 127.144 23.8352 129.353 23.8352C131.516 23.8352 132.812 25.2578 132.812 27.629V38.2934H136.999V26.9813C137.01 22.7248 134.581 20.2958 130.915 20.2958C128.254 20.2958 126.427 21.5681 125.617 23.546H125.409V20.5271H121.407V38.2934H125.594V27.8835Z" fill="#212B36"/>
<path d="M149.121 38.6404C153.261 38.6404 156.107 36.6162 156.847 33.5279L152.937 33.0884C152.371 34.5921 150.983 35.3786 149.178 35.3786C146.472 35.3786 144.679 33.5973 144.644 30.5553H157.02V29.2714C157.02 23.0371 153.273 20.2958 148.901 20.2958C143.811 20.2958 140.492 24.0318 140.492 29.5143C140.492 35.0894 143.765 38.6404 149.121 38.6404ZM144.656 27.7331C144.783 25.466 146.46 23.5576 148.959 23.5576C151.364 23.5576 152.984 25.3157 153.007 27.7331H144.656Z" fill="#212B36"/>
<path d="M174.605 25.2232C174.026 22.2158 171.62 20.2958 167.456 20.2958C163.177 20.2958 160.262 22.4009 160.274 25.6858C160.262 28.2767 161.858 29.9886 165.27 30.6941L168.301 31.3303C169.932 31.6889 170.695 32.3481 170.695 33.3544C170.695 34.5689 169.376 35.4827 167.387 35.4827C165.467 35.4827 164.218 34.6499 163.859 33.0537L159.776 33.447C160.297 36.7087 163.038 38.6404 167.399 38.6404C171.84 38.6404 174.975 36.3386 174.986 32.9727C174.975 30.4397 173.344 28.8897 169.989 28.1611L166.959 27.5133C165.155 27.1085 164.438 26.4839 164.449 25.4545C164.438 24.2516 165.768 23.4188 167.514 23.4188C169.446 23.4188 170.464 24.4713 170.788 25.6395L174.605 25.2232Z" fill="#212B36"/>
<path d="M192.481 25.2232C191.902 22.2158 189.496 20.2958 185.333 20.2958C181.053 20.2958 178.138 22.4009 178.15 25.6858C178.138 28.2767 179.734 29.9886 183.146 30.6941L186.177 31.3303C187.808 31.6889 188.571 32.3481 188.571 33.3544C188.571 34.5689 187.253 35.4827 185.263 35.4827C183.343 35.4827 182.094 34.6499 181.735 33.0537L177.652 33.447C178.173 36.7087 180.914 38.6404 185.275 38.6404C189.716 38.6404 192.851 36.3386 192.862 32.9727C192.851 30.4397 191.22 28.8897 187.866 28.1611L184.835 27.5133C183.031 27.1085 182.314 26.4839 182.325 25.4545C182.314 24.2516 183.644 23.4188 185.39 23.4188C187.322 23.4188 188.34 24.4713 188.664 25.6395L192.481 25.2232Z" fill="#212B36"/>
<path d="M25.6666 14.667H31.1666C34.2043 14.667 36.6666 17.1294 36.6666 20.167V40.3337H25.6666V14.667Z" fill="#3056D3"/>
<path d="M7.33337 13.4607C7.33337 10.937 9.05101 8.73705 11.4994 8.12493L22.4994 5.37493C25.9707 4.50711 29.3334 7.13259 29.3334 10.7107V40.3331H7.33337V13.4607Z" fill="#98AAE9"/>
<path fill-rule="evenodd" clip-rule="evenodd" d="M14.6666 31.1663C14.6666 30.1538 15.4874 29.333 16.5 29.333H20.1666C21.1792 29.333 22 30.1538 22 31.1663C22 32.1789 21.1792 32.9997 20.1666 32.9997H16.5C15.4874 32.9997 14.6666 32.1789 14.6666 31.1663Z" fill="#3056D3"/>
<path fill-rule="evenodd" clip-rule="evenodd" d="M14.6666 23.8333C14.6666 22.8208 15.4874 22 16.5 22H20.1666C21.1792 22 22 22.8208 22 23.8333C22 24.8459 21.1792 25.6667 20.1666 25.6667H16.5C15.4874 25.6667 14.6666 24.8459 14.6666 23.8333Z" fill="#3056D3"/>
<path fill-rule="evenodd" clip-rule="evenodd" d="M14.6666 16.5003C14.6666 15.4878 15.4874 14.667 16.5 14.667H20.1666C21.1792 14.667 22 15.4878 22 16.5003C22 17.5128 21.1792 18.3337 20.1666 18.3337H16.5C15.4874 18.3337 14.6666 17.5128 14.6666 16.5003Z" fill="#3056D3"/>
<path fill-rule="evenodd" clip-rule="evenodd" d="M3.66663 38.5003C3.66663 37.4878 4.48745 36.667 5.49996 36.667H38.5C39.5125 36.667 40.3333 37.4878 40.3333 38.5003C40.3333 39.5129 39.5125 40.3337 38.5 40.3337H5.49996C4.48745 40.3337 3.66663 39.5129 3.66663 38.5003Z" fill="#98AAE9"/>
</svg>
