<svg width="42" height="29" viewBox="0 0 42 29" fill="none" xmlns="http://www.w3.org/2000/svg">
<path d="M38.0455 0H3.95455C1.77273 0 0 1.78251 0 3.97636V25.0236C0 27.2175 1.77273 29 3.95455 29H38.0455C40.2273 29 42 27.2175 42 25.0236V3.97636C42 1.78251 40.2273 0 38.0455 0ZM38.0455 2.39953C38.3864 2.39953 38.6591 2.46809 38.9318 2.67376L21.9545 13.026C21.3409 13.3688 20.6591 13.3688 20.0455 13.026L3.06818 2.67376C3.34091 2.53664 3.61364 2.39953 3.95455 2.39953H38.0455ZM38.0455 26.5319H3.95455C3.13636 26.5319 2.38636 25.8463 2.38636 24.9551V5.07329L18.75 15.0827C19.4318 15.4941 20.1818 15.6998 20.9318 15.6998C21.6818 15.6998 22.4318 15.4941 23.1136 15.0827L39.4773 5.07329V24.9551C39.6136 25.8463 38.8636 26.5319 38.0455 26.5319Z" fill="#3056D3"/>
</svg>
