<svg width="18" height="13" viewBox="0 0 18 13" fill="none" xmlns="http://www.w3.org/2000/svg">
<path d="M16.3052 0H1.69481C0.75974 0 0 0.799055 0 1.78251V11.2175C0 12.2009 0.75974 13 1.69481 13H16.3052C17.2403 13 18 12.2009 18 11.2175V1.78251C18 0.799055 17.2403 0 16.3052 0ZM16.3052 1.07565C16.4513 1.07565 16.5682 1.10638 16.6851 1.19858L9.40909 5.83924C9.1461 5.99291 8.8539 5.99291 8.59091 5.83924L1.31494 1.19858C1.43182 1.13712 1.5487 1.07565 1.69481 1.07565H16.3052ZM16.3052 11.8936H1.69481C1.34416 11.8936 1.02273 11.5863 1.02273 11.1868V2.27423L8.03572 6.76123C8.32792 6.94563 8.64935 7.03782 8.97078 7.03782C9.29221 7.03782 9.61364 6.94563 9.90584 6.76123L16.9188 2.27423V11.1868C16.9773 11.5863 16.6558 11.8936 16.3052 11.8936Z" fill="white"/>
</svg>
