<svg width="47" height="47" viewBox="0 0 47 47" fill="none" xmlns="http://www.w3.org/2000/svg">
<path d="M23.5002 0.955078C13.2923 0.955078 4.92047 9.0332 4.92047 18.8738C4.92047 26.7316 16.1564 39.7301 21.0033 45.0176C21.6642 45.7519 22.5455 46.1191 23.5002 46.1191C24.4548 46.1191 25.3361 45.7519 25.997 45.0176C30.8439 39.8035 42.0798 26.7316 42.0798 18.8738C42.0798 8.95977 33.708 0.955078 23.5002 0.955078ZM24.0877 43.2551C23.7205 43.6223 23.2064 43.6223 22.9127 43.2551C19.3142 39.3629 7.49078 25.9973 7.49078 18.8738C7.49078 10.3551 14.6877 3.52539 23.5002 3.52539C32.3127 3.52539 39.5095 10.4285 39.5095 18.8738C39.5095 25.9973 27.6861 39.2895 24.0877 43.2551Z" fill="#3056D3"/>
<path d="M23.5002 11.5303C19.1673 11.5303 15.5689 15.0553 15.5689 19.4615C15.5689 23.7943 19.0939 27.3928 23.5002 27.3928C27.9064 27.3928 31.4314 23.8678 31.4314 19.4615C31.4314 15.0553 27.833 11.5303 23.5002 11.5303ZM23.5002 24.749C20.5627 24.749 18.1392 22.3256 18.1392 19.3881C18.1392 16.4506 20.5627 14.0271 23.5002 14.0271C26.4377 14.0271 28.8611 16.4506 28.8611 19.3881C28.8611 22.3256 26.4377 24.749 23.5002 24.749Z" fill="#3056D3"/>
</svg>
