<svg width="37" height="40" viewBox="0 0 37 40" fill="none" xmlns="http://www.w3.org/2000/svg">
<path d="M34.7508 23.0521C34.6209 21.5585 33.3871 20.5195 31.8936 20.5195H4.23067C2.73714 20.5195 1.56828 21.6235 1.37347 23.0521L0.00980639 36.6887C-0.05513 37.4679 0.204616 38.3121 0.724107 38.8965C1.2436 39.481 2.02284 39.8056 2.86701 39.8056H33.3222C34.1014 39.8056 34.8807 39.481 35.4651 38.8965C35.9846 38.3121 36.2443 37.5329 36.1794 36.6887L34.7508 23.0521ZM33.7118 37.403C33.6469 37.4679 33.517 37.5978 33.2573 37.5978H2.86701C2.6722 37.5978 2.47739 37.4679 2.41245 37.403C2.34752 37.3381 2.21764 37.2082 2.28258 36.9484L3.64625 23.2469C3.64625 22.9222 3.90599 22.7274 4.23067 22.7274H31.9585C32.2832 22.7274 32.478 22.9222 32.543 23.2469L33.9066 36.9484C33.8417 37.1433 33.7767 37.3381 33.7118 37.403Z" fill="#3056D3"/>
<path d="M18.0635 25.585C15.531 25.585 13.5179 27.598 13.5179 30.1305C13.5179 32.663 15.531 34.6761 18.0635 34.6761C20.596 34.6761 22.609 32.663 22.609 30.1305C22.609 27.598 20.596 25.585 18.0635 25.585ZM18.0635 32.4033C16.8297 32.4033 15.7907 31.3643 15.7907 30.1305C15.7907 28.8967 16.8297 27.8577 18.0635 27.8577C19.2973 27.8577 20.3363 28.8967 20.3363 30.1305C20.3363 31.3643 19.2973 32.4033 18.0635 32.4033Z" fill="#3056D3"/>
<path d="M1.56829 11.8184C1.69817 14.6756 4.23069 15.8445 5.52941 15.8445H10.075C10.1399 15.8445 10.1399 15.8445 10.1399 15.8445C12.088 15.7146 14.0361 14.4159 14.0361 11.8184V10.26C16.179 10.26 21.1142 10.26 23.2571 10.26V11.8184C23.2571 14.4159 25.2051 15.7146 27.1532 15.8445H27.2182H31.6988C32.9975 15.8445 35.53 14.6756 35.6599 11.8184C35.6599 11.6236 35.6599 10.9093 35.6599 10.26C35.6599 9.74046 35.6599 9.28591 35.6599 9.22097C35.6599 9.15604 35.6599 9.0911 35.6599 9.0911C35.4651 7.27288 34.8157 5.77934 33.7118 4.61049L33.6469 4.54555C32.0235 3.05201 30.0754 2.20784 28.5818 1.68835C24.2311 0 18.7764 0 18.5167 0C14.6855 0.0649364 12.2179 0.389618 8.51649 1.68835C7.08789 2.1429 5.1398 2.98708 3.51639 4.48061L3.45145 4.54555C2.34753 5.7144 1.69817 7.20794 1.50336 9.02616C1.50336 9.0911 1.50336 9.15604 1.50336 9.15604C1.50336 9.28591 1.50336 9.67553 1.50336 10.195C1.56829 10.7794 1.56829 11.5587 1.56829 11.8184ZM5.07486 6.10402C6.37359 4.93517 7.997 4.22087 9.36066 3.70138C12.7374 2.46758 14.9452 2.20784 18.6466 2.1429C18.9063 2.1429 23.9714 2.20784 27.8675 3.70138C29.2312 4.22087 30.8546 4.87023 32.1533 6.10402C32.8676 6.88326 33.3222 7.92224 33.4521 9.15604C33.4521 9.35084 33.4521 9.67553 33.4521 10.195C33.4521 10.8444 33.4521 11.5587 33.4521 11.7535C33.3871 13.247 31.9585 13.5717 31.7637 13.5717H27.2831C26.6338 13.5068 25.5948 13.247 25.5948 11.8184V9.15604C25.5948 8.63654 25.2701 8.24693 24.8155 8.05212C24.4259 7.92224 13.062 7.92224 12.6724 8.05212C12.2179 8.18199 11.8932 8.63654 11.8932 9.15604V11.8184C11.8932 13.247 10.8542 13.5068 10.2048 13.5717H5.72422C5.52941 13.5717 4.10081 13.247 4.03588 11.7535C4.03588 11.5587 4.03588 10.8444 4.03588 10.195C4.03588 9.67553 4.03588 9.41578 4.03588 9.22097C3.906 7.92224 4.36056 6.88326 5.07486 6.10402Z" fill="#3056D3"/>
</svg>
