<svg width="20" height="20" viewBox="0 0 20 20" fill="none" xmlns="http://www.w3.org/2000/svg">
<g clip-path="url(#clip0_121_53337)">
<path d="M15.3438 19.1562C12.7813 19.1562 9.09376 17.3125 5.71876 14.0937C1.12501 9.71875 -0.843743 4.84375 1.15626 2.71875C1.25001 2.625 1.34376 2.5625 1.46876 2.5L4.09376 1.03125C4.68751 0.718746 5.43751 0.874996 5.81251 1.40625L7.71876 4.125C7.90626 4.40625 8.00001 4.75 7.93751 5.0625C7.87501 5.40625 7.68751 5.6875 7.40626 5.875L6.25001 6.625C6.18751 6.65625 6.18751 6.6875 6.18751 6.71875C6.18751 6.75 6.18751 6.78125 6.21876 6.8125C7.06251 8.0625 9.46876 11.25 13.2813 13.5312C13.375 13.5937 13.5313 13.5625 13.5938 13.5L14.4063 12.4062C14.8125 11.8437 15.5938 11.7187 16.1875 12.0937L19.0313 13.9062C19.625 14.2812 19.8125 15.0312 19.4375 15.625L17.875 18.125C17.8125 18.25 17.7188 18.3437 17.625 18.4062C17.0313 18.9375 16.25 19.1562 15.3438 19.1562ZM4.75001 1.9375C4.71876 1.9375 4.68751 1.9375 4.62501 1.96875L2.00001 3.4375C1.96876 3.46875 1.96876 3.46875 1.93751 3.46875C0.625007 4.875 2.12501 9.15625 6.50001 13.3125C10.875 17.4687 15.4063 18.9062 16.9063 17.625C16.9063 17.625 16.9063 17.625 16.9375 17.5937L18.5 15.0937C18.5313 15.0312 18.5313 14.9375 18.4375 14.875L15.5938 13.0625C15.5 13 15.3438 13.0312 15.2813 13.0937L14.4688 14.1875C14.0625 14.7187 13.3125 14.875 12.7188 14.5312C8.68751 12.125 6.18751 8.78125 5.31251 7.4375C5.12501 7.15625 5.06251 6.84375 5.12501 6.5C5.18751 6.1875 5.37501 5.875 5.65626 5.71875L6.81251 4.9375C6.87501 4.90625 6.87501 4.875 6.87501 4.84375C6.87501 4.8125 6.87501 4.78125 6.84376 4.71875L4.93751 2C4.90626 1.96875 4.81251 1.9375 4.75001 1.9375Z" fill="white"/>
</g>
<defs>
<clipPath id="clip0_121_53337">
<rect width="20" height="20" fill="white"/>
</clipPath>
</defs>
</svg>
