<svg width="19" height="15" viewBox="0 0 19 15" fill="none" xmlns="http://www.w3.org/2000/svg">
<path d="M16.2621 3.1786L17.3299 1.93274C17.639 1.59532 17.7233 1.33577 17.7514 1.20599C16.9084 1.67319 16.1216 1.82892 15.6158 1.82892H15.4191L15.3067 1.7251C14.6323 1.18004 13.7893 0.894531 12.8901 0.894531C10.9231 0.894531 9.37767 2.39994 9.37767 4.13894C9.37767 4.24276 9.37767 4.3985 9.40577 4.50232L9.49006 5.02142L8.89997 4.99547C5.30322 4.89165 2.35275 2.03656 1.87506 1.54341C1.08827 2.84118 1.53787 4.08703 2.01556 4.86569L2.97095 6.31919L1.45357 5.54053C1.48167 6.63065 1.93126 7.48718 2.80235 8.1101L3.56104 8.62921L2.80235 8.91472C3.28004 10.2384 4.34783 10.7835 5.13462 10.9911L6.17431 11.2507L5.19082 11.8736C3.61724 12.9118 1.65026 12.834 0.779175 12.7561C2.54945 13.8981 4.65693 14.1577 6.11811 14.1577C7.21399 14.1577 8.02888 14.0539 8.22558 13.976C16.0935 12.263 16.4588 5.77413 16.4588 4.47636V4.29468L16.6274 4.19085C17.5828 3.36028 17.9762 2.91904 18.201 2.65949C18.1167 2.68545 18.0043 2.73736 17.8919 2.76331L16.2621 3.1786Z" fill="#CDCED6"/>
</svg>
