<svg width="169" height="30" viewBox="0 0 169 30" fill="none" xmlns="http://www.w3.org/2000/svg">
<path fill-rule="evenodd" clip-rule="evenodd" d="M144.285 1.18068L145.575 1.22517C146.458 1.22517 147.103 1.25898 147.465 1.31414C147.837 1.37019 148.109 1.48141 148.29 1.62643C148.529 1.7937 148.686 2.08376 148.742 2.47346C148.788 2.87473 148.822 3.65414 148.822 4.82413V22.0129L131.505 0.435085H122.288V1.18157H125.807L126.608 1.70473V26.1804C126.608 26.2355 126.597 26.3023 126.587 26.3574C126.577 26.4126 126.565 26.458 126.565 26.4909C126.474 27.45 126.281 28.1049 125.998 28.4634C125.716 28.8078 124.969 28.9759 123.759 28.943H120.151L108.965 0H108.343L106.919 3.91038L98.9907 25.6554C98.8552 26.0567 98.707 26.4251 98.5941 26.7258C98.4812 27.0372 98.3574 27.3166 98.2427 27.539C97.8814 28.241 97.4523 28.6636 96.9428 28.7971C96.5472 28.8976 95.9139 28.9537 95.0323 28.9537V28.943H90.7126V1.18068H95.0332V0.434195H86.392L77.31 22.4141L67.602 0.434195H59.3113V1.18068H63.0556L63.4512 1.97165V26.2685C63.4512 27.3495 63.2588 28.0844 62.8749 28.4403C62.4901 28.8069 61.7439 28.9759 60.6473 28.9421H59.1433V29.6877H68.8919V28.9421L67.6029 28.9857C65.9634 28.9857 64.9896 28.7179 64.6734 28.1725C64.3681 27.6369 64.2091 26.8254 64.2091 25.7435V25.3894V25.0433C64.177 24.9195 64.1618 24.792 64.1639 24.6643V3.59808L75.3498 29.1201L86.3884 2.67365V28.943H82.113V29.6886H103.626V28.943L102.246 28.9866C101.172 28.9866 100.413 28.8861 99.9509 28.709C99.4974 28.5195 99.2608 28.1734 99.2608 27.7169C99.2608 27.5728 99.305 27.3379 99.3944 27.0167C99.4866 26.6938 99.6221 26.2471 99.791 25.7008L101.838 20.1311H111.995L115.421 28.943H110.977V29.6886H131.945V28.9866C129.696 28.9866 128.35 28.7971 127.93 28.3958C127.524 28.0061 127.308 26.6368 127.308 24.2968V2.49481L149.228 29.9101H149.487V4.86862C149.487 3.75467 149.51 3.03043 149.533 2.67365C149.556 2.32843 149.659 2.03838 149.805 1.83819C149.828 1.83819 149.861 1.81595 149.872 1.79371C149.891 1.76114 149.914 1.73096 149.941 1.70384C150.087 1.50365 150.336 1.37019 150.698 1.31414C151.049 1.25898 151.672 1.20292 152.564 1.18068H153.808V0.434195H144.284V1.18068H144.285ZM106.917 19.3837H102.11L106.782 6.40608L106.917 6.75129L111.723 19.3846H106.917V19.3837ZM169 1.18068V0.434195H155.914V1.18068H160.222V28.943H155.914V29.6886H169V28.943H164.679V1.18068H169ZM56.3484 29.0311C56.156 29.0862 55.9871 29.1201 55.8389 29.1201C55.7486 29.1423 55.6583 29.1654 55.5679 29.1654H55.2617C54.2897 29.1654 53.6447 28.5853 53.362 27.45C53.0793 26.3138 52.8869 24.9979 52.7622 23.5049C52.7396 23.3608 52.7062 23.2149 52.6945 23.0708C52.6827 22.9266 52.6719 22.77 52.6719 22.6259C52.5945 21.6116 52.4548 20.6029 52.2536 19.6053C52.0612 18.6372 51.7225 17.8445 51.2473 17.2332C50.6602 16.4423 49.8671 15.8417 48.8951 15.4297C47.9231 15.016 46.5085 14.6824 44.6648 14.4261C44.756 14.4261 44.8346 14.4146 44.9132 14.4039C44.9917 14.3901 45.0711 14.3827 45.1508 14.3816C47.2664 14.0925 49.1887 13.4572 50.942 12.499C52.6945 11.5292 53.5653 9.81375 53.5653 7.36343C53.5653 4.87929 52.6945 3.14076 50.9646 2.17273C49.2338 1.19224 47.3224 0.635273 45.2411 0.523167C45.0547 0.491588 44.8657 0.476696 44.6766 0.478678C44.495 0.478678 44.3035 0.456439 44.1337 0.434195H28.7736V1.18068H33.0932V28.943H25.8667L14.6916 0H14.0702L12.6447 3.91038L4.71625 25.6554C4.56901 26.0567 4.43351 26.4251 4.32059 26.7258C4.20768 27.0372 4.08302 27.3166 3.95927 27.539C3.60878 28.241 3.17879 28.6636 2.67022 28.7971C2.17249 28.9208 1.2782 28.9759 0 28.943V29.6886H9.34217V28.943L7.96189 28.9866C6.89868 28.9866 6.14079 28.8861 5.67829 28.709C5.21398 28.5195 4.98815 28.1734 4.98815 27.7169C4.98815 27.5728 5.03332 27.3379 5.12365 27.0167C5.20224 26.6938 5.33864 26.2471 5.5193 25.7008L7.56623 20.1311H17.7241L21.1513 28.943H16.6952V29.6886H42.0416V28.943H37.45V14.7713L39.1916 14.8167C40.7977 14.8167 42.1436 14.9155 43.2186 15.1281C44.598 15.3853 45.5483 15.8194 46.046 16.4209C46.9285 17.4895 47.5392 19.3837 47.8671 22.1018C47.924 22.448 47.98 22.8038 48.0026 23.1597C48.0369 23.5058 48.0812 23.8742 48.1381 24.2514C48.3757 26.3806 48.9186 27.8851 49.7668 28.7312C50.6033 29.5658 51.9718 30 53.8381 30C54.3132 30 54.754 29.9795 55.1497 29.9342C55.5453 29.8888 55.941 29.8007 56.3258 29.6895C56.5074 29.6895 56.6772 29.6566 56.8461 29.6005C57.0198 29.5401 57.1897 29.4694 57.3547 29.3888L57.0837 28.8087C56.7892 28.8976 56.5399 28.9759 56.3484 29.0311ZM12.6447 19.3837H7.83813L12.5092 6.40608L12.6447 6.75129L17.4513 19.3846H12.6447V19.3837ZM41.1021 13.9919C40.4797 14.0471 39.8465 14.0809 39.2241 14.0925C38.6134 14.104 38.0145 14.104 37.4491 14.0702V1.18068L39.01 1.22517C40.7182 1.22517 42.1202 1.28033 43.2177 1.40311C43.8735 1.48141 44.4164 1.57038 44.8464 1.68159C45.9999 1.99389 46.9502 2.62828 47.6855 3.59808C47.9574 3.9433 48.1941 4.36681 48.3865 4.86862C48.5789 5.35886 48.7379 5.85978 48.8508 6.36159C48.8734 6.58402 48.9068 6.8287 48.9411 7.06359C48.9637 7.28602 48.9863 7.50845 48.9863 7.7211C48.9863 10.0486 48.1607 11.6537 46.5094 12.5007C45.4682 13.032 44.3619 13.4288 43.2177 13.6814C42.5275 13.8362 41.8257 13.9359 41.1021 13.9919Z" fill="#3F3F3F"/>
</svg>
