<svg width="170" height="23" viewBox="0 0 170 23" fill="none" xmlns="http://www.w3.org/2000/svg">
<path d="M126.096 22.3367L120.867 13.1622C123.183 12.0531 124.658 9.71438 124.66 7.14621C124.66 3.4546 121.656 0.451024 117.964 0.451024H106.78V22.3358H111.753V13.8414H115.712L120.554 22.3367H126.096ZM111.672 9.61668V4.68625H117.032L117.012 4.69467C118.643 4.78226 119.683 5.72801 119.683 7.15631C119.683 8.56904 118.569 9.559 116.909 9.61795H111.672V9.61668ZM86.4676 22.3367V0.451024H102.819V4.62688H91.5757V9.00528H101.434V13.2742H91.5757V17.9427H103.376V22.3367H86.4676ZM63.1456 22.3367L57.9162 13.1622C60.2322 12.0531 61.7072 9.71396 61.7093 7.14621C61.7093 3.4546 58.7058 0.451024 55.0141 0.451024H43.829V22.3358H48.8032V13.8414H52.763L57.6038 22.3367H63.1456ZM48.7203 9.61668V4.68625H54.0815L54.0604 4.69467C55.6921 4.78226 56.7326 5.72801 56.7326 7.15631C56.7326 8.56904 55.6184 9.559 53.9577 9.61795H48.7203V9.61668ZM30.5742 22.8761C36.5582 22.8761 40.1319 19.4354 40.1319 13.6734V0.467029H35.0242V13.3319C35.0242 16.4475 33.4022 18.2345 30.5746 18.2345H30.5717C27.7441 18.2345 26.123 16.4479 26.123 13.3319V0.467029H21.0132V13.6742C21.0132 19.4359 24.5869 22.8765 30.5717 22.8765H30.5742V22.8761ZM14.3327 10.2155C17.2803 11.2206 18.717 13.7281 18.717 16.146C18.717 19.5525 15.9509 22.3257 12.5473 22.3367H0.465271V0.449341H11.5932C14.4898 0.47629 16.8251 2.83055 16.8285 5.72759C16.8322 7.55508 15.8873 9.25372 14.3327 10.2146V10.2155ZM5.4795 18.253H11.0639C12.8194 18.253 13.7377 16.9439 13.7377 15.6495C13.7377 14.6069 12.9086 13.139 11.0639 13.139H5.4795V18.253ZM9.56861 9.05665C10.8546 9.05665 11.8635 8.06332 11.8635 6.79503C11.8635 5.56884 10.8108 4.5334 9.56777 4.5334H5.4795V9.05665H9.56861Z" fill="black"/>
<path d="M79.3405 10.2111C82.2881 11.2154 83.7248 13.7238 83.7248 16.1416C83.7248 19.5486 80.9587 22.3205 77.5552 22.3323L65.4735 22.3315V0.444998L76.5997 0.44458C79.4972 0.47195 81.8325 2.82663 81.8359 5.72408C81.8392 7.55157 80.8952 9.25063 79.3405 10.2111ZM70.4873 18.2487H76.0713C77.8267 18.2487 78.7451 16.9396 78.7451 15.6452C78.7451 14.603 77.9152 13.1347 76.0713 13.1347H70.4873V18.2487ZM74.5752 9.0523C75.8628 9.0523 76.8717 8.05898 76.8717 6.79068C76.8717 5.5645 75.819 4.52906 74.5752 4.52906H70.4873V9.0523H74.5752Z" fill="black"/>
<path d="M147.741 22.3366L142.512 13.1621C144.828 12.053 146.303 9.71386 146.305 7.14611C146.305 3.4545 143.302 0.450928 139.61 0.450928H128.425V22.3357H133.399V13.8413H137.359L142.2 22.3366H147.742H147.741ZM133.316 9.61658V4.68615H138.677L138.656 4.69458C140.288 4.78216 141.329 5.72791 141.329 7.15622C141.329 8.56894 140.215 9.5589 138.553 9.61785H133.316V9.61658ZM155.009 22.3366V13.4185L146.327 0.450928H152.705L157.703 7.97521L162.722 0.450928H169.1L160.397 13.4185V22.3366H155.009Z" fill="black"/>
</svg>
