<svg width="144" height="24" viewBox="0 0 144 24" fill="none" xmlns="http://www.w3.org/2000/svg">
<path fill-rule="evenodd" clip-rule="evenodd" d="M21.3454 17.1328C21.328 17.1669 21.294 17.2349 21.2773 17.2863C19.4383 20.7603 15.8275 23.1269 11.7065 23.1269C5.72913 23.1269 0.825012 18.12 0.825012 11.9384C0.825012 5.79098 5.72913 0.75 11.7065 0.75C15.8449 0.75 19.4723 3.16807 21.294 6.69344C21.3454 6.76148 21.362 6.7955 21.4134 6.89755C21.4308 6.91497 17.9395 9.43501 17.9055 9.38439C17.888 9.31635 17.8714 9.26492 17.8374 9.2309C16.8321 6.72746 14.4488 5.05853 11.7065 5.10996C8.04506 5.14398 5.03069 8.17495 5.03069 11.9384C5.03069 15.736 8.04506 18.8018 11.7065 18.8018C14.3634 18.8018 16.6794 17.1669 17.7345 14.8508C17.786 14.7655 17.8034 14.6974 17.8374 14.6294L21.3454 17.1328Z" fill="#3F3F3F"/>
<path fill-rule="evenodd" clip-rule="evenodd" d="M25.8582 0.955078H30.0473V8.77156H41.049V0.955078H45.2721V22.7015H41.049V13.148H30.0473V22.7015H25.8582V0.955078Z" fill="#3F3F3F"/>
<path fill-rule="evenodd" clip-rule="evenodd" d="M104.399 22.7015V0.955078H119.606V5.34816H108.639V9.69063H118.772V14.0332H108.639V18.3756H121.155V22.7015H104.399Z" fill="#3F3F3F"/>
<path fill-rule="evenodd" clip-rule="evenodd" d="M127.099 22.7015V0.955078H131.356V18.3756H143.175V22.7015H127.099Z" fill="#3F3F3F"/>
<path fill-rule="evenodd" clip-rule="evenodd" d="M81.5446 22.7015H81.4085H77.2874V0.955078H77.5936H83.1961L92.5115 14.0332V0.955078H96.7347V22.7015H93.3628L81.5446 6.30206V22.7015Z" fill="#3F3F3F"/>
<path fill-rule="evenodd" clip-rule="evenodd" d="M61.2624 5.34816L57.5503 14.0332H65.1453L61.2624 5.34816ZM55.6424 18.3756L53.7014 22.7015H48.6605L58.2994 0.955078H64.1914L73.8982 22.7015H68.8573L66.8997 18.3756H55.6424Z" fill="#3F3F3F"/>
</svg>
