<svg width="89" height="37" viewBox="0 0 89 37" fill="none" xmlns="http://www.w3.org/2000/svg">
<path d="M74.8162 22.3909C74.7884 22.224 74.7884 22.0787 75.6197 21.8191C76.448 21.5626 78.463 20.8796 79.6869 20.2028C80.9107 19.5198 81.1147 19.424 81.4021 19.6156C81.6895 19.8041 81.6061 20.2677 81.6061 20.5953V23.9145C82.0542 23.179 83.5253 20.7313 84.6935 20.0112C85.6114 19.4425 85.9359 19.3962 86.5045 19.3838C87.1875 19.3714 88.8008 19.7918 88.8719 21.4946C88.9275 22.8266 87.9447 23.3613 87.3204 23.2778C86.8198 23.2068 86.4613 22.7463 86.1646 22.2827C85.8648 21.8129 85.3889 21.5348 84.9129 21.6955C84.437 21.8593 81.7699 23.59 81.6184 26.05C81.5103 27.8611 81.6184 33.5074 81.6184 33.5074C81.6184 34.3635 81.946 34.6942 82.3292 34.9229C82.7094 35.1547 84.1094 35.167 84.5019 35.2227C84.9005 35.2783 84.8851 35.371 84.8851 35.4946C84.8851 35.6152 84.8851 35.6739 84.5328 35.6739H75.1562C74.8564 35.6739 74.7359 35.6152 74.7359 35.439C74.7359 35.1948 75.1284 35.2381 75.4281 35.1948C75.7279 35.1547 77.3133 35.2845 77.7676 34.4871C78.1014 33.9648 78.0612 33.1242 78.0612 33.1242L78.0149 23.2068C78.0149 22.4063 77.7769 22.2889 77.5575 22.1622C77.335 22.0355 76.9672 21.9675 76.1915 22.2302C75.459 22.4712 74.9553 22.6968 74.8162 22.3909Z" fill="#3F3F3F"/>
<path d="M42.0235 22.3943C41.8968 22.1501 42.1317 21.9925 42.827 21.8102C43.6028 21.6031 45.3025 21.087 46.65 20.3237C47.9975 19.5634 48.2292 19.483 48.5136 19.5758C48.801 19.6716 48.7732 20.1753 48.7732 20.5833V33.415C48.7732 34.1351 48.869 34.4349 49.1935 34.7347C49.5211 35.0345 50.337 35.2106 51.397 35.2106C51.876 35.2106 52.0244 35.2663 52.0244 35.4702C52.0244 35.6742 51.876 35.6742 51.6844 35.6742H42.3789C42.0915 35.6742 42.0235 35.5506 42.0235 35.4301C42.0235 35.2786 42.1502 35.1828 42.5829 35.1828C42.9476 35.1828 44.6319 35.3095 45.0151 34.4349C45.1635 34.1011 45.2345 33.6345 45.2345 33.1987V23.0186C45.2345 22.246 44.635 21.9029 43.9427 22.0698C43.133 22.2552 42.1904 22.7126 42.0235 22.3943Z" fill="#3F3F3F"/>
<path d="M46.7675 13.5184C48.0315 13.5184 49.0575 12.4924 49.0575 11.2314C49.0575 9.96742 48.0315 8.94446 46.7675 8.94446C45.5065 8.94446 44.4836 9.96742 44.4836 11.2314C44.4836 12.4924 45.5065 13.5184 46.7675 13.5184Z" fill="#3F3F3F"/>
<path d="M57.9518 28.0715C58.4123 32.2344 60.8909 35.4732 63.9628 34.9293C67.041 34.3854 68.5832 31.4463 68.2123 26.7395C67.8322 21.9523 65.4648 19.5633 62.2785 19.8507C58.984 20.1505 57.4882 23.9055 57.9518 28.0715ZM60.999 19.1183C64.9642 18.3765 70.6043 19.2512 71.8869 25.4569C73.1664 31.6626 68.8953 34.9664 65.1898 35.773C61.5677 36.558 55.4176 35.9986 54.305 29.3231C53.3037 23.3306 57.652 19.7425 60.999 19.1183Z" fill="#3F3F3F"/>
<path d="M14.0539 34.6697H16.3532C24.9078 34.6697 27.204 33.8754 30.2142 29.8763C33.2243 25.8772 33.5828 20.135 33.5828 18.1942C33.5828 16.2534 33.0667 11.3827 30.0565 7.26308C27.0433 3.14343 22.015 2.07412 17.6172 2.07412H14.0353C13.1855 2.07412 13.1422 2.45116 13.1422 3.04454V33.9156C13.1422 34.5893 13.3802 34.6697 14.0539 34.6697ZM0.124969 35.3929C0.124969 35.0807 0.529825 35.0282 0.906868 35.0158C5.26139 34.8922 6.0742 34.7408 6.57177 34.2247C6.84373 33.9403 7.24241 33.7086 7.24241 31.6904V3.92533C7.24241 1.43129 4.21371 1.82688 2.07508 1.60745C1.32409 1.53328 1.26228 1.43129 1.26228 1.21187C1.26228 0.995529 1.40444 0.890452 1.79693 0.875H19.3418C38.6327 0.875 39.6186 14.977 39.6186 18.7381C39.6186 26.8198 34.2751 35.7081 23.106 35.7081H0.687441C0.412386 35.7081 0.124969 35.671 0.124969 35.3929Z" fill="#3F3F3F"/>
</svg>
