<svg width="103" height="29" viewBox="0 0 103 29" fill="none" xmlns="http://www.w3.org/2000/svg">
<path d="M0.579774 0.857503C6.62994 0.857503 12.6788 0.862796 18.729 0.854858C18.7355 2.50844 18.742 4.16201 18.7264 5.81691C14.4539 5.81559 10.1801 5.81295 5.90637 5.81824C5.90897 7.89381 5.90376 9.9707 5.90897 12.0463C9.65047 12.0383 13.392 12.045 17.1322 12.0436C17.153 13.6919 17.1283 15.3402 17.1452 16.9885C13.3998 16.9845 9.65567 16.9925 5.91157 16.9845C5.90246 20.8949 5.90637 24.8053 5.90897 28.7157C4.13517 28.6958 2.36138 28.6958 0.587582 28.7144C0.568061 19.4292 0.584979 10.1427 0.579774 0.857503Z" fill="#3F3F3F"/>
<path d="M22.2582 28.7156C22.2517 19.4264 22.2504 10.1373 22.2595 0.848145C28.5114 0.867987 34.7646 0.857406 41.0178 0.853437C41.0191 2.50834 41.0113 4.16324 41.0217 5.81682C36.5072 5.81682 31.9913 5.80888 27.4768 5.82211C27.4911 7.76407 27.4781 9.70736 27.4833 11.6506C31.6296 11.6401 35.7745 11.6467 39.9207 11.6467C39.9051 13.2936 39.9233 14.9419 39.909 16.5889C35.768 16.5929 31.6257 16.5955 27.4846 16.5862C27.4742 18.97 27.495 21.3538 27.4742 23.7363C32.1931 23.7522 36.9119 23.739 41.632 23.7429C41.6438 25.3965 41.6438 27.0501 41.632 28.705C35.1745 28.7103 28.7157 28.6878 22.2582 28.7156Z" fill="#3F3F3F"/>
<path d="M45.6368 0.848145C47.5161 0.862696 49.3953 0.866665 51.2745 0.848145C54.6646 7.32091 58.0534 13.7937 61.45 20.2625C61.4618 13.795 61.4605 7.32753 61.45 0.861374C63.1067 0.852114 64.7634 0.864021 66.42 0.854761C66.4279 10.1399 66.4266 19.4251 66.4214 28.7103C64.6489 28.697 62.8764 28.705 61.1052 28.705C57.6279 22.0761 54.1427 15.4512 50.6472 8.83162C50.6485 15.4592 50.6498 22.0854 50.6459 28.7129C48.9762 28.6984 47.3052 28.6918 45.6342 28.7169C45.646 19.4277 45.6408 10.1373 45.6368 0.848145Z" fill="#3F3F3F"/>
<path d="M71.5081 0.853394C75.3784 0.865299 79.2487 0.853392 83.1191 0.860006C85.2416 0.894401 87.415 1.50292 89.0508 2.92764C90.7647 4.29283 91.7655 6.35121 92.3915 8.42678C92.9198 10.3171 93.1124 12.2882 93.145 14.2487C93.0682 17.2767 92.6478 20.3775 91.2723 23.1026C90.4108 24.9903 88.9753 26.6188 87.1768 27.6228C85.8585 28.3517 84.3528 28.6586 82.864 28.6983C79.0822 28.7168 75.299 28.6838 71.5172 28.7155C71.4912 19.4277 71.5094 10.1399 71.5081 0.853394ZM76.7826 5.7083C76.7683 11.7551 76.7748 17.8019 76.7787 23.8487C78.4614 23.8408 80.1428 23.8487 81.8255 23.8447C82.5139 23.8262 83.2167 23.7389 83.8518 23.4558C85.0816 22.9399 85.9548 21.8221 86.5339 20.6408C87.5113 18.4871 87.7247 16.061 87.6609 13.7182C87.6024 11.4733 87.2666 9.06969 85.8103 7.28647C84.9345 6.1832 83.4848 5.81677 82.1547 5.72814C80.364 5.69507 78.5733 5.73475 76.7826 5.7083Z" fill="#3F3F3F"/>
<path d="M96.7042 28.722C96.6847 19.4302 96.6873 10.1385 96.7029 0.84668C98.4741 0.873137 100.247 0.853294 102.018 0.854617C102.026 10.1371 102.03 19.421 102.017 28.7048C100.245 28.7128 98.4741 28.6784 96.7042 28.722Z" fill="#3F3F3F"/>
</svg>
