<svg width="126" height="29" viewBox="0 0 126 29" fill="none" xmlns="http://www.w3.org/2000/svg">
<path d="M114.11 8.57634L113.883 8.65796C113.002 6.58782 111.743 4.9398 110.106 3.7139C108.495 2.48872 106.468 1.87613 104.025 1.87613C102.666 1.87613 101.369 2.1894 100.135 2.81596C98.9006 3.41459 97.8179 4.27243 96.8864 5.38949C95.9794 6.47862 95.2492 7.79976 94.6957 9.3529C94.1416 10.9046 93.8646 12.6203 93.8646 14.5C93.8646 16.3789 94.1416 18.0946 94.6957 19.647C95.2499 21.1995 95.9801 22.5342 96.8864 23.6513C97.8179 24.7404 98.9003 25.5846 100.134 26.184C101.368 26.7833 102.666 27.083 104.025 27.083C106.443 27.083 108.406 26.6745 109.917 25.8575C111.453 25.0125 112.75 23.7322 113.808 22.0165L114.034 22.0981L113.959 24.7125C113.38 25.3662 112.712 25.952 111.957 26.4697C111.202 26.9602 110.384 27.3827 109.502 27.7371C108.646 28.0629 107.752 28.3078 106.821 28.4718C105.889 28.6623 104.957 28.7575 104.025 28.7575C102.086 28.7575 100.236 28.4174 98.4733 27.7371C96.7103 27.0554 95.1615 26.102 93.8268 24.8768C92.4922 23.6237 91.4346 22.1257 90.654 20.3828C89.8735 18.6127 89.4832 16.6517 89.4832 14.5C89.4832 12.3482 89.8738 10.4005 90.655 8.6569C91.4349 6.88679 92.4922 5.37552 93.8268 4.12313C95.1615 2.87002 96.7103 1.91659 98.4733 1.26282C100.236 0.582559 102.086 0.242432 104.024 0.242432C104.957 0.242432 105.889 0.32371 106.821 0.486257C107.752 0.650235 108.646 0.909084 109.502 1.26282C110.383 1.59006 111.202 2.01255 111.957 2.53026C112.712 3.02005 113.38 3.59182 113.959 4.24559L114.11 8.57634Z" fill="#3F3F3F"/>
<path d="M27.2684 16.379C26.9855 16.5151 26.7155 16.692 26.4584 16.9096C26.2012 17.1273 26.0726 17.427 26.0726 17.8086V22.8341C24.8363 24.713 23.2528 26.1701 21.3221 27.2055C19.3922 28.2402 17.2561 28.7575 14.914 28.7575C12.932 28.7575 11.0399 28.417 9.2378 27.7361C7.4364 27.0551 5.85358 26.1017 4.48933 24.8759C3.12508 23.6228 2.04404 22.1252 1.2462 20.3831C0.448359 18.6124 0.0494385 16.6511 0.0494385 14.4994C0.0494385 12.3485 0.448697 10.4012 1.24721 8.65765C2.04438 6.8876 3.12508 5.37605 4.48933 4.12298C5.85358 2.86992 7.4364 1.91689 9.2378 1.26386C11.0399 0.582911 12.932 0.242432 14.914 0.242432C15.8662 0.242432 16.8183 0.324056 17.7704 0.487313C18.7232 0.650569 19.6368 0.909424 20.5111 1.26386C21.4125 1.59038 22.2492 2.01248 23.0214 2.53017C23.7935 3.02066 24.4756 3.59242 25.0677 4.24544L25.223 8.57603L24.9906 8.65765C24.0906 6.5883 22.8038 4.94071 21.1303 3.71485C19.4825 2.489 17.4104 1.87607 14.914 1.87607C13.5241 1.87607 12.1984 2.18933 10.937 2.81586C9.67631 3.41519 8.56989 4.27299 7.61776 5.3893C6.69067 6.4791 5.94392 7.8002 5.37751 9.35256C4.81111 10.9049 4.5279 12.6206 4.5279 14.4994C4.5279 16.3511 4.79859 18.0531 5.33995 19.6055C5.90568 21.1586 6.65176 22.4933 7.57817 23.6096C8.53098 24.6987 9.63774 25.5565 10.8984 26.183C12.1598 26.7823 13.4984 27.082 14.914 27.082C17.5911 27.082 19.8818 26.5375 21.786 25.4484V17.8086C21.786 17.4277 21.6446 17.128 21.3617 16.9096C21.1046 16.692 20.8474 16.5147 20.5903 16.378L20.6248 16.1739C20.7534 16.1989 20.9851 16.2262 21.3201 16.2555C21.6551 16.2806 22.0026 16.3078 22.3626 16.3372H25.6829C25.9921 16.3121 26.2882 16.2849 26.571 16.2555C26.8539 16.2305 27.0725 16.2032 27.2268 16.1739L27.2684 16.379Z" fill="#3F3F3F"/>
<path d="M55.7836 1.73818C55.5325 1.87109 55.2813 2.04421 55.0301 2.25756C54.7782 2.47021 54.6398 2.86927 54.6146 3.45476C54.5915 4.09341 54.5664 4.90485 54.5393 5.88906C54.5393 6.84739 54.528 7.93862 54.5056 9.16276C54.5056 10.3862 54.494 11.7163 54.4709 13.1531V17.623C54.4477 19.3522 54.2465 20.8288 53.867 22.053C53.4903 23.2771 52.9876 24.3012 52.3589 25.1252C51.7554 25.9506 51.0766 26.6026 50.3223 27.081C49.5932 27.5602 48.8641 27.9194 48.135 28.1586C47.4311 28.4244 46.7648 28.5843 46.1361 28.6381C45.5075 28.7179 45.017 28.7578 44.6647 28.7578C43.2316 28.7578 41.8488 28.5584 40.5162 28.1597C39.1836 27.7868 38.0146 27.1748 37.0092 26.3235C36.0038 25.4715 35.1993 24.3673 34.5958 23.0109C33.9923 21.6539 33.6905 20.0041 33.6905 18.0616V13.5518V9.40095C33.6905 8.12434 33.679 6.98064 33.6558 5.96985C33.6558 4.93178 33.6443 4.09341 33.6211 3.45476C33.5987 2.86927 33.4605 2.47055 33.2067 2.2586C32.9555 2.04525 32.7043 1.87179 32.4531 1.73818L32.4868 1.53882C32.6124 1.5633 32.814 1.58987 33.0917 1.61855C33.3931 1.64303 33.6945 1.66962 33.9959 1.6983C34.3231 1.6983 34.6371 1.71054 34.9379 1.73503H36.2963C36.5984 1.71054 36.9127 1.6983 37.2392 1.6983C37.5664 1.67382 37.8682 1.64723 38.1445 1.61855C38.4459 1.59407 38.6594 1.5675 38.785 1.53882L38.8197 1.73818C38.5434 1.87109 38.2793 2.04421 38.0275 2.25756C37.8014 2.47021 37.6758 2.86927 37.6507 3.45476C37.6275 4.09341 37.6024 4.93144 37.5753 5.96881V18.0616C37.5753 20.9617 38.2165 23.1036 39.4989 24.4873C40.7813 25.8709 42.6794 26.5627 45.1932 26.5627C45.9223 26.5627 46.7519 26.4693 47.6819 26.2826C48.6126 26.0699 49.4802 25.6442 50.2847 25.0056C51.1142 24.3669 51.8057 23.4625 52.3589 22.2922C52.9373 21.1212 53.2265 19.5648 53.2265 17.623C53.2265 15.5209 53.2149 13.725 53.1918 12.235C53.1918 10.7185 53.1802 9.42788 53.1571 8.36323C53.1571 7.27199 53.1455 6.34094 53.1224 5.57008C53.0999 4.79853 53.0748 4.09341 53.047 3.45476C53.0246 2.86927 52.8864 2.47021 52.6326 2.25756C52.3814 2.04491 52.1302 1.87179 51.879 1.73818L51.9127 1.53882C52.1897 1.59198 52.504 1.64549 52.8557 1.69936C53.208 1.72314 53.5352 1.73503 53.8373 1.73503C54.1129 1.73503 54.4269 1.72314 54.7792 1.69936C55.156 1.64619 55.4829 1.59268 55.7598 1.53882L55.7836 1.73818Z" fill="#3F3F3F"/>
<path d="M84.2983 8.57634L84.06 8.65796C83.1318 6.58782 81.8064 4.9398 80.0837 3.7139C78.3876 2.48872 76.2539 1.87613 73.6825 1.87613C72.2519 1.87613 70.8871 2.1894 69.5881 2.81596C68.2892 3.41459 67.1495 4.27243 66.1691 5.38949C65.2144 6.47862 64.4457 7.79976 63.8632 9.3529C63.2799 10.9046 62.9883 12.6203 62.9883 14.5C62.9883 16.3789 63.2799 18.0946 63.8632 19.647C64.4457 21.1995 65.2144 22.5342 66.1691 23.6513C67.1495 24.7404 68.2889 25.5846 69.5871 26.184C70.8867 26.7833 72.2519 27.083 73.6825 27.083C76.2274 27.083 78.2949 26.6745 79.8851 25.8575C81.5018 25.0125 82.867 23.7322 83.9805 22.0165L84.2189 22.0981L84.1394 24.7125C83.5297 25.3662 82.8272 25.952 82.0321 26.4697C81.2377 26.9602 80.3764 27.3827 79.4482 27.7371C78.5472 28.0629 77.6065 28.3078 76.626 28.4718C75.6448 28.6623 74.664 28.7575 73.6835 28.7575C71.6418 28.7575 69.6934 28.4174 67.8384 27.7371C65.9833 27.0554 64.3534 26.102 62.9486 24.8768C61.5437 23.6237 60.4305 22.1257 59.6089 20.3828C58.7866 18.6127 58.3755 16.6517 58.3755 14.5C58.3755 12.3482 58.7866 10.4005 59.6089 8.6569C60.4312 6.88679 61.5444 5.37552 62.9486 4.12313C64.3534 2.87002 65.9833 1.91659 67.8384 1.26282C69.6941 0.582559 71.6425 0.242432 73.6835 0.242432C74.664 0.242432 75.6445 0.32371 76.6249 0.486257C77.6061 0.650235 78.5468 0.909084 79.4472 1.26282C80.3754 1.59006 81.237 2.01255 82.0321 2.53026C82.8272 3.02005 83.5297 3.59182 84.1394 4.24559L84.2983 8.57634Z" fill="#3F3F3F"/>
<path d="M125.74 26.1587C125.612 26.1366 125.394 26.1123 125.088 26.0857C124.806 26.0857 124.499 26.0743 124.166 26.0516C123.833 26.0516 123.513 26.0405 123.206 26.0185H120.904C120.597 26.0405 120.289 26.0649 119.982 26.0915C119.7 26.1142 119.483 26.1389 119.33 26.1655L119.294 26.0175C119.55 25.8942 119.806 25.7336 120.061 25.5356C120.318 25.3383 120.459 24.9681 120.484 24.4249C120.508 23.8323 120.52 23.2151 120.52 22.5733C120.543 21.9314 120.555 21.2032 120.555 20.3887V17.6113V13.8721V10.1319V7.3185C120.555 6.50336 120.543 5.78719 120.52 5.16999C120.52 4.52813 120.508 3.91125 120.484 3.31936C120.461 2.77615 120.32 2.40589 120.062 2.20859C119.807 1.98598 119.551 1.81302 119.295 1.68971L119.33 1.54174C119.483 1.59107 119.7 1.62806 119.982 1.65272C120.289 1.65272 120.596 1.66408 120.903 1.6868C121.236 1.70951 121.556 1.72087 121.863 1.72087H123.206C123.513 1.69816 123.833 1.6868 124.165 1.6868C124.499 1.66408 124.806 1.63942 125.088 1.61281C125.394 1.59009 125.612 1.56543 125.74 1.53882L125.775 1.68776C125.494 1.81107 125.225 1.98372 124.969 2.20568C124.738 2.40297 124.611 2.7729 124.585 3.31547C124.561 3.90866 124.536 4.52618 124.508 5.16804V22.5713C124.532 23.2125 124.557 23.8294 124.585 24.4219C124.608 24.9652 124.736 25.3354 124.969 25.5327C125.224 25.73 125.493 25.8906 125.775 26.0146L125.74 26.1587Z" fill="#3F3F3F"/>
</svg>
