<svg width="136" height="28" viewBox="0 0 136 28" fill="none" xmlns="http://www.w3.org/2000/svg">
<path fill-rule="evenodd" clip-rule="evenodd" d="M122.243 0.934454H135.475V3.05114C135.091 2.92189 134.689 2.8553 134.283 2.8539H126.677V12.7456H134.075C134.607 12.7456 135.08 12.6861 135.475 12.5875V14.694C135.139 14.6164 134.677 14.5765 134.106 14.5765H126.677V24.804H134.056C134.46 24.804 134.943 24.7445 135.475 24.6169V26.8916H122.263C122.362 26.5146 122.421 26.1099 122.421 25.6654V2.1904C122.421 1.67627 122.362 1.25062 122.243 0.934454ZM119.179 7.67102L115.356 7.64129C115.168 5.48545 113.937 3.39776 111.228 3.01198C105.425 2.48771 103.788 8.88781 103.936 13.5664C104.084 18.0768 104.804 25.0113 110.793 25.0113C113.306 25.0113 115.719 22.4197 115.642 20.2327L119.178 20.2044C118.922 24.714 113.768 27.3253 111.315 27.4145C102.932 27.7016 99.423 22.0919 99.2468 14.09C99.0886 6.83929 102.044 0.400024 110.33 0.400024C117.426 0.499369 118.794 4.71317 119.179 7.67102ZM59.5532 23.9418L62.0854 21.8156C63.4057 24.0027 64.4898 25.0012 67.1101 25.0012C69.7702 25.0012 72.0077 23.3783 72.0077 20.5104C72.0077 19.0956 71.435 17.9383 70.3025 17.0689C69.7904 16.6621 68.4896 15.9601 66.4406 14.9812C63.3761 13.507 60.391 11.5882 60.391 7.73048C60.391 2.86405 64.5093 0.717632 68.8536 0.558826C71.4256 0.460207 74.6172 1.88511 75.9086 3.48695L73.3367 5.47529C72.8781 4.61609 72.1963 3.89761 71.3638 3.39611C70.5312 2.89461 69.579 2.62881 68.6081 2.62694C65.3269 2.62694 62.726 6.44481 65.4453 9.07635C66.1351 9.74928 67.5442 10.5796 69.6915 11.5694C73.1207 13.1821 76.0466 15.111 76.0466 19.3741C76.0466 20.8469 75.663 22.2224 74.904 23.4784C73.3764 26.0106 70.8247 27.2767 67.2589 27.2767C63.1587 27.276 62.3512 26.3369 59.5532 23.9418ZM23.4737 0.934454H36.696V3.05114C36.3116 2.92172 35.909 2.85512 35.5036 2.8539H27.8975V12.7456H35.2963C35.8286 12.7456 36.3017 12.6861 36.696 12.5875V14.694C36.3609 14.6164 35.8979 14.5765 35.336 14.5765H27.8975V24.804H35.2768C35.6805 24.804 36.1637 24.7445 36.6953 24.6169V26.8916H23.4932C23.582 26.5146 23.6413 26.1099 23.6413 25.6654V2.1904C23.6413 1.67627 23.582 1.25062 23.4737 0.934454ZM0.350037 0.934454H5.15808V1.17157C5.15808 1.38984 5.22742 1.67627 5.34514 2.04247L12.1235 22.5285L19.0788 1.95328C19.1871 1.60666 19.2464 1.27092 19.2464 0.934454H21.5807C21.3445 1.34996 21.1668 1.71616 21.0585 2.04247L13.1173 25.8329C13.0386 26.0592 12.9693 26.4167 12.91 26.8909H8.96869C8.90939 26.5315 8.82049 26.1776 8.7029 25.8329L0.922061 2.23028C0.833224 2.01274 0.646161 1.5675 0.360148 0.934454H0.350037ZM51.4148 14.4671C54.5675 13.8442 56.9812 11.42 56.9812 7.95818C56.9812 3.41734 53.1988 0.934454 48.9613 0.934454H41.2173C41.3257 1.33038 41.3849 1.74588 41.3849 2.18097V25.6444C41.3849 26.1484 41.3257 26.5733 41.2173 26.8909H45.8282C45.716 26.485 45.6598 26.0656 45.6613 25.6444V14.8623L47.1391 15.0211L54.8636 26.8909H59.5041L51.4148 14.4671ZM50.6167 12.4881C49.7796 13.082 48.7743 13.3786 47.6223 13.3786H45.6512V2.82345H47.4143C48.9223 2.82345 50.0938 3.1998 50.9316 3.95104C52.075 4.99017 52.6564 6.39477 52.6564 8.15542C52.6564 10.0546 51.976 11.499 50.6167 12.4881ZM98.479 25.8126L89.8683 1.79519C89.7724 1.51763 89.716 1.22786 89.7008 0.934454H85.9768C85.9768 1.24119 85.9277 1.5675 85.8093 1.89382L77.4651 25.8126C77.3567 26.1585 77.179 26.5138 76.9429 26.8902H79.3465C79.3319 26.525 79.382 26.1602 79.4946 25.8126L81.9661 18.7592H91.4739L93.9173 25.8126C94.0458 26.1977 94.1051 26.553 94.1051 26.8902H99.0901C98.8048 26.4856 98.5975 26.1186 98.479 25.8126ZM82.6162 16.8506L86.6362 5.12867L90.7639 16.8506H82.6162Z" fill="#3F3F3F"/>
</svg>
